<svg xmlns="http://www.w3.org/2000/svg" xmlns:xlink="http://www.w3.org/1999/xlink" width="500" zoomAndPan="magnify" viewBox="0 0 375 374.999991" height="500" preserveAspectRatio="xMidYMid meet" version="1.0"><defs><g/></defs><g fill="#e4e2dd" fill-opacity="1"><g transform="translate(97.714894, 201.835885)"><g><path d="M 5.828125 6.984375 C 5.773438 6.984375 5.59375 6.929688 5.28125 6.828125 C 5.125 6.773438 4.941406 6.59375 4.734375 6.28125 C 4.679688 6.132812 4.628906 5.984375 4.578125 5.828125 C 4.523438 5.671875 4.5 5.515625 4.5 5.359375 C 4.34375 4.578125 4.265625 3.800781 4.265625 3.03125 L 4.265625 -2.328125 C 4.265625 -2.796875 4.210938 -3.257812 4.109375 -3.71875 C 4.003906 -4.1875 3.898438 -4.65625 3.796875 -5.125 C 3.796875 -5.226562 3.742188 -5.382812 3.640625 -5.59375 C 3.597656 -5.75 3.523438 -5.914062 3.421875 -6.09375 C 3.316406 -6.269531 3.210938 -6.4375 3.109375 -6.59375 C 2.898438 -6.957031 2.742188 -7.347656 2.640625 -7.765625 C 2.535156 -8.179688 2.457031 -8.566406 2.40625 -8.921875 C 2.351562 -9.492188 2.351562 -10.039062 2.40625 -10.5625 C 2.507812 -10.863281 2.585938 -11.15625 2.640625 -11.4375 C 2.691406 -11.726562 2.769531 -12.003906 2.875 -12.265625 C 3.03125 -12.679688 3.160156 -13.109375 3.265625 -13.546875 C 3.367188 -13.984375 3.492188 -14.4375 3.640625 -14.90625 L 4.8125 -18.703125 C 5.175781 -19.796875 5.640625 -20.910156 6.203125 -22.046875 C 6.773438 -23.128906 7.320312 -24.34375 7.84375 -25.6875 C 7.945312 -26 8.078125 -26.335938 8.234375 -26.703125 C 8.429688 -27.273438 8.644531 -27.832031 8.875 -28.375 C 9.113281 -28.914062 9.335938 -29.445312 9.546875 -29.96875 L 10.71875 -33.21875 C 10.820312 -33.425781 10.894531 -33.632812 10.9375 -33.84375 C 10.988281 -34.050781 11.039062 -34.257812 11.09375 -34.46875 C 11.507812 -35.5 11.925781 -36.484375 12.34375 -37.421875 C 12.65625 -38.035156 12.863281 -38.703125 12.96875 -39.421875 C 13.070312 -40.148438 13.070312 -40.878906 12.96875 -41.609375 C 12.914062 -41.921875 12.875 -42.242188 12.84375 -42.578125 C 12.820312 -42.910156 12.8125 -43.234375 12.8125 -43.546875 C 12.8125 -43.703125 12.769531 -43.84375 12.6875 -43.96875 C 12.613281 -44.101562 12.601562 -44.25 12.65625 -44.40625 C 12.707031 -44.507812 12.769531 -44.613281 12.84375 -44.71875 C 12.925781 -44.820312 12.992188 -44.921875 13.046875 -45.015625 C 13.203125 -45.585938 13.445312 -46.09375 13.78125 -46.53125 C 14.113281 -46.976562 14.488281 -47.378906 14.90625 -47.734375 C 15.113281 -47.941406 15.398438 -48.097656 15.765625 -48.203125 C 15.960938 -48.304688 16.148438 -48.410156 16.328125 -48.515625 C 16.515625 -48.617188 16.6875 -48.75 16.84375 -48.90625 C 17.101562 -49.113281 17.390625 -49.242188 17.703125 -49.296875 C 18.109375 -49.347656 18.546875 -49.5 19.015625 -49.75 C 19.429688 -50.007812 19.898438 -50.085938 20.421875 -49.984375 L 21.109375 -49.984375 C 21.472656 -49.984375 21.863281 -49.859375 22.28125 -49.609375 C 22.382812 -49.554688 22.5 -49.488281 22.625 -49.40625 C 22.757812 -49.332031 22.898438 -49.242188 23.046875 -49.140625 C 23.460938 -48.828125 23.671875 -48.4375 23.671875 -47.96875 C 23.671875 -47.601562 23.707031 -47.265625 23.78125 -46.953125 C 23.863281 -46.648438 23.929688 -46.316406 23.984375 -45.953125 C 24.085938 -45.640625 24.085938 -45.300781 23.984375 -44.9375 C 23.929688 -44.84375 23.90625 -44.726562 23.90625 -44.59375 C 23.90625 -44.46875 23.878906 -44.351562 23.828125 -44.25 C 23.828125 -44.039062 23.8125 -43.832031 23.78125 -43.625 C 23.757812 -43.414062 23.722656 -43.207031 23.671875 -43 C 23.515625 -42.632812 23.566406 -42.273438 23.828125 -41.921875 C 24.242188 -41.242188 24.617188 -40.539062 24.953125 -39.8125 C 25.296875 -39.09375 25.644531 -38.367188 26 -37.640625 L 27.40625 -35.171875 C 27.8125 -34.492188 28.222656 -33.6875 28.640625 -32.75 C 28.742188 -32.601562 28.832031 -32.453125 28.90625 -32.296875 C 28.988281 -32.140625 29.082031 -31.984375 29.1875 -31.828125 C 29.34375 -31.566406 29.484375 -31.28125 29.609375 -30.96875 C 29.742188 -30.65625 29.890625 -30.347656 30.046875 -30.046875 C 30.453125 -29.265625 30.796875 -28.472656 31.078125 -27.671875 C 31.367188 -26.867188 31.671875 -26.03125 31.984375 -25.15625 C 31.984375 -25.101562 31.992188 -25.0625 32.015625 -25.03125 C 32.046875 -25.007812 32.0625 -24.972656 32.0625 -24.921875 C 32.113281 -24.554688 32.367188 -24.375 32.828125 -24.375 C 32.984375 -24.425781 33.148438 -24.453125 33.328125 -24.453125 C 33.515625 -24.453125 33.6875 -24.453125 33.84375 -24.453125 C 34.414062 -24.453125 34.90625 -24.347656 35.3125 -24.140625 C 35.570312 -24.085938 35.832031 -23.929688 36.09375 -23.671875 C 36.507812 -23.253906 36.796875 -22.914062 36.953125 -22.65625 C 37.109375 -22.40625 37.210938 -22.019531 37.265625 -21.5 C 37.472656 -20.519531 37.265625 -19.664062 36.640625 -18.9375 L 36.171875 -18.546875 C 36.066406 -18.441406 35.9375 -18.351562 35.78125 -18.28125 C 35.625 -18.207031 35.492188 -18.117188 35.390625 -18.015625 C 35.140625 -17.804688 35 -17.648438 34.96875 -17.546875 C 34.945312 -17.441406 35.015625 -17.207031 35.171875 -16.84375 L 36.328125 -14.046875 C 36.796875 -13.015625 37.273438 -11.976562 37.765625 -10.9375 C 38.253906 -9.90625 38.757812 -8.875 39.28125 -7.84375 C 39.488281 -7.476562 39.65625 -7.113281 39.78125 -6.75 C 39.914062 -6.382812 40.003906 -6 40.046875 -5.59375 C 40.097656 -5.28125 40.109375 -4.96875 40.078125 -4.65625 C 40.054688 -4.34375 40.023438 -4.03125 39.984375 -3.71875 C 39.984375 -3.664062 39.929688 -3.488281 39.828125 -3.1875 C 39.671875 -2.976562 39.523438 -2.769531 39.390625 -2.5625 C 39.265625 -2.351562 39.125 -2.144531 38.96875 -1.9375 C 38.550781 -1.375 38.210938 -0.726562 37.953125 0 C 37.847656 0.46875 37.515625 0.832031 36.953125 1.09375 C 36.640625 1.238281 36.300781 1.238281 35.9375 1.09375 C 35.46875 0.9375 35.160156 0.625 35.015625 0.15625 L 34.859375 -0.234375 C 34.703125 -0.753906 34.46875 -1.242188 34.15625 -1.703125 C 33.945312 -2.066406 33.75 -2.441406 33.5625 -2.828125 C 33.382812 -3.222656 33.191406 -3.597656 32.984375 -3.953125 C 32.929688 -4.054688 32.90625 -4.144531 32.90625 -4.21875 C 32.90625 -4.300781 32.878906 -4.367188 32.828125 -4.421875 C 32.773438 -4.734375 32.6875 -5.03125 32.5625 -5.3125 C 32.4375 -5.601562 32.296875 -5.875 32.140625 -6.125 C 31.828125 -6.90625 31.5 -7.671875 31.15625 -8.421875 C 30.820312 -9.171875 30.476562 -9.9375 30.125 -10.71875 L 28.953125 -13.203125 C 28.898438 -13.347656 28.847656 -13.507812 28.796875 -13.6875 C 28.742188 -13.875 28.664062 -14.070312 28.5625 -14.28125 L 27.640625 -16.375 C 27.640625 -16.476562 27.585938 -16.632812 27.484375 -16.84375 C 27.222656 -17.257812 26.882812 -17.492188 26.46875 -17.546875 C 26.101562 -17.546875 25.765625 -17.570312 25.453125 -17.625 C 25.148438 -17.675781 24.84375 -17.703125 24.53125 -17.703125 C 23.695312 -17.703125 22.863281 -17.625 22.03125 -17.46875 C 21.207031 -17.3125 20.4375 -17.023438 19.71875 -16.609375 C 18.726562 -16.046875 17.71875 -15.6875 16.6875 -15.53125 C 16.476562 -15.53125 16.269531 -15.503906 16.0625 -15.453125 C 15.863281 -15.398438 15.660156 -15.320312 15.453125 -15.21875 C 15.140625 -15.007812 14.957031 -14.773438 14.90625 -14.515625 C 14.800781 -14.203125 14.75 -13.96875 14.75 -13.8125 L 14.515625 -12.734375 C 14.460938 -12.367188 14.253906 -12.003906 13.890625 -11.640625 C 13.628906 -11.378906 13.269531 -11.25 12.8125 -11.25 C 12.132812 -11.351562 11.691406 -11.691406 11.484375 -12.265625 C 11.429688 -12.421875 11.378906 -12.578125 11.328125 -12.734375 C 11.273438 -12.890625 11.222656 -13.070312 11.171875 -13.28125 C 10.972656 -12.96875 10.945312 -12.707031 11.09375 -12.5 C 11.195312 -12.289062 11.144531 -12.109375 10.9375 -11.953125 C 10.84375 -11.847656 10.820312 -11.769531 10.875 -11.71875 C 10.96875 -11.507812 10.9375 -11.328125 10.78125 -11.171875 C 10.632812 -11.015625 10.585938 -10.835938 10.640625 -10.640625 C 10.691406 -10.535156 10.691406 -10.40625 10.640625 -10.25 C 10.378906 -9.882812 10.195312 -9.441406 10.09375 -8.921875 C 10.144531 -8.710938 10.015625 -8.5625 9.703125 -8.46875 C 9.597656 -8.46875 9.546875 -8.414062 9.546875 -8.3125 C 9.441406 -8.15625 9.335938 -7.921875 9.234375 -7.609375 C 9.179688 -7.347656 9.113281 -7.070312 9.03125 -6.78125 C 8.957031 -6.5 8.867188 -6.234375 8.765625 -5.984375 L 8.3125 -4.03125 L 8.3125 -3.71875 C 8.3125 -3.257812 8.269531 -2.804688 8.1875 -2.359375 C 8.113281 -1.921875 8.078125 -1.472656 8.078125 -1.015625 L 7.84375 1.546875 C 7.789062 1.910156 7.75 2.285156 7.71875 2.671875 C 7.695312 3.066406 7.6875 3.46875 7.6875 3.875 C 7.632812 4.1875 7.59375 4.484375 7.5625 4.765625 C 7.539062 5.054688 7.476562 5.359375 7.375 5.671875 C 7.269531 6.128906 7.085938 6.460938 6.828125 6.671875 C 6.617188 6.984375 6.285156 7.085938 5.828125 6.984375 Z M 15.90625 -24.453125 L 15.984375 -24.453125 C 16.503906 -24.554688 17 -24.632812 17.46875 -24.6875 C 17.9375 -24.738281 18.398438 -24.789062 18.859375 -24.84375 C 19.171875 -24.894531 19.484375 -24.929688 19.796875 -24.953125 C 20.109375 -24.984375 20.414062 -25 20.71875 -25 L 22.359375 -25 C 22.460938 -25 22.566406 -25.007812 22.671875 -25.03125 C 22.773438 -25.0625 22.851562 -25.078125 22.90625 -25.078125 C 23 -25.078125 23.046875 -25.179688 23.046875 -25.390625 C 22.898438 -25.585938 22.773438 -25.789062 22.671875 -26 C 22.566406 -26.207031 22.460938 -26.414062 22.359375 -26.625 C 22.046875 -27.351562 21.628906 -27.972656 21.109375 -28.484375 C 21.054688 -28.585938 21.003906 -28.675781 20.953125 -28.75 C 20.898438 -28.832031 20.847656 -28.925781 20.796875 -29.03125 C 20.742188 -29.132812 20.679688 -29.25 20.609375 -29.375 C 20.535156 -29.507812 20.445312 -29.628906 20.34375 -29.734375 C 20.082031 -29.941406 19.820312 -29.890625 19.5625 -29.578125 L 19.328125 -28.953125 C 19.273438 -28.535156 19.195312 -28.109375 19.09375 -27.671875 C 18.988281 -27.234375 18.882812 -26.804688 18.78125 -26.390625 C 18.78125 -26.285156 18.726562 -26.128906 18.625 -25.921875 C 18.519531 -25.617188 18.273438 -25.390625 17.890625 -25.234375 C 17.503906 -25.078125 17.101562 -25.128906 16.6875 -25.390625 L 16.21875 -25.6875 C 16.21875 -25.6875 16.164062 -25.6875 16.0625 -25.6875 C 15.957031 -25.488281 15.90625 -25.335938 15.90625 -25.234375 C 15.90625 -25.128906 15.914062 -25.023438 15.9375 -24.921875 C 15.96875 -24.816406 15.929688 -24.710938 15.828125 -24.609375 C 15.734375 -24.503906 15.757812 -24.453125 15.90625 -24.453125 Z M 15.90625 -24.453125 "/></g></g></g><g fill="#e4e2dd" fill-opacity="1"><g transform="translate(131.714356, 201.835885)"><g><path d="M 40.359375 29.265625 L 39.359375 28.328125 C 39.253906 28.222656 39.203125 28.117188 39.203125 28.015625 L 38.96875 27.25 C 38.96875 26.832031 38.890625 26.390625 38.734375 25.921875 C 38.679688 25.816406 38.65625 25.6875 38.65625 25.53125 C 38.65625 25.382812 38.628906 25.257812 38.578125 25.15625 C 38.578125 24.738281 38.550781 24.332031 38.5 23.9375 C 38.445312 23.550781 38.367188 23.179688 38.265625 22.828125 L 38.265625 22.515625 C 38.210938 21.785156 38.132812 21.046875 38.03125 20.296875 C 37.925781 19.546875 37.875 18.8125 37.875 18.09375 L 37.875 17 C 37.875 16.84375 37.882812 16.6875 37.90625 16.53125 C 37.9375 16.375 37.925781 16.191406 37.875 15.984375 C 37.875 15.679688 37.859375 15.332031 37.828125 14.9375 C 37.804688 14.550781 37.796875 14.175781 37.796875 13.8125 C 37.796875 13.550781 37.796875 13.265625 37.796875 12.953125 C 37.796875 12.648438 37.769531 12.367188 37.71875 12.109375 C 37.664062 11.585938 37.613281 11.066406 37.5625 10.546875 C 37.519531 10.035156 37.472656 9.519531 37.421875 9 C 37.367188 8.488281 37.328125 7.972656 37.296875 7.453125 C 37.273438 6.929688 37.265625 6.414062 37.265625 5.90625 C 37.160156 5.488281 37.082031 5.097656 37.03125 4.734375 C 36.976562 4.367188 36.898438 4.003906 36.796875 3.640625 C 36.691406 3.179688 36.507812 2.820312 36.25 2.5625 C 36.039062 2.300781 35.84375 2.050781 35.65625 1.8125 C 35.476562 1.582031 35.335938 1.34375 35.234375 1.09375 C 35.140625 0.882812 35.039062 0.726562 34.9375 0.625 C 34.675781 0.363281 34.425781 0.0664062 34.1875 -0.265625 C 33.957031 -0.609375 33.710938 -0.929688 33.453125 -1.234375 C 33.191406 -1.703125 32.910156 -2.117188 32.609375 -2.484375 C 32.453125 -2.742188 32.28125 -2.988281 32.09375 -3.21875 C 31.914062 -3.457031 31.773438 -3.675781 31.671875 -3.875 C 31.566406 -4.132812 31.421875 -4.351562 31.234375 -4.53125 C 31.054688 -4.71875 30.890625 -4.890625 30.734375 -5.046875 L 27.796875 -8.3125 C 27.328125 -8.820312 26.882812 -9.335938 26.46875 -9.859375 C 26.363281 -10.117188 26.234375 -10.328125 26.078125 -10.484375 C 25.921875 -10.640625 25.738281 -10.816406 25.53125 -11.015625 L 23.671875 -12.96875 C 23.515625 -13.175781 23.347656 -13.34375 23.171875 -13.46875 C 22.992188 -13.59375 22.800781 -13.707031 22.59375 -13.8125 C 22.175781 -14.019531 21.757812 -14.332031 21.34375 -14.75 C 21.34375 -14.800781 21.289062 -14.878906 21.1875 -14.984375 C 20.875 -15.191406 20.578125 -15.421875 20.296875 -15.671875 C 20.015625 -15.929688 19.742188 -16.191406 19.484375 -16.453125 C 19.171875 -16.765625 18.9375 -16.972656 18.78125 -17.078125 C 18.375 -17.492188 17.945312 -17.878906 17.5 -18.234375 C 17.0625 -18.597656 16.632812 -18.988281 16.21875 -19.40625 C 16.007812 -19.613281 15.816406 -19.804688 15.640625 -19.984375 C 15.460938 -20.171875 15.296875 -20.367188 15.140625 -20.578125 L 14.671875 -21.03125 C 14.671875 -21.03125 14.65625 -21.03125 14.625 -21.03125 C 14.601562 -21.03125 14.59375 -21.003906 14.59375 -20.953125 L 14.515625 -20.875 L 14.515625 -20.796875 C 14.773438 -19.765625 14.957031 -18.628906 15.0625 -17.390625 C 15.0625 -17.234375 15.085938 -17.128906 15.140625 -17.078125 C 15.296875 -16.554688 15.359375 -16.050781 15.328125 -15.5625 C 15.304688 -15.070312 15.242188 -14.566406 15.140625 -14.046875 C 15.035156 -13.628906 15.113281 -13.296875 15.375 -13.046875 C 15.476562 -12.941406 15.476562 -12.835938 15.375 -12.734375 C 15.375 -12.472656 15.375 -12.34375 15.375 -12.34375 C 15.425781 -12.082031 15.453125 -11.820312 15.453125 -11.5625 C 15.453125 -11.300781 15.453125 -11.046875 15.453125 -10.796875 C 15.453125 -10.429688 15.476562 -10.171875 15.53125 -10.015625 C 15.6875 -9.234375 15.738281 -8.507812 15.6875 -7.84375 C 15.632812 -7.632812 15.609375 -7.398438 15.609375 -7.140625 C 15.609375 -6.878906 15.582031 -6.617188 15.53125 -6.359375 C 15.476562 -6.203125 15.460938 -6.0625 15.484375 -5.9375 C 15.515625 -5.8125 15.53125 -5.695312 15.53125 -5.59375 C 15.582031 -5.382812 15.617188 -5.1875 15.640625 -5 C 15.671875 -4.820312 15.660156 -4.628906 15.609375 -4.421875 C 15.609375 -3.953125 15.503906 -3.539062 15.296875 -3.1875 C 14.984375 -2.664062 14.566406 -2.351562 14.046875 -2.25 C 13.890625 -2.25 13.785156 -2.222656 13.734375 -2.171875 C 13.472656 -2.066406 13.34375 -1.9375 13.34375 -1.78125 C 13.34375 -1.519531 13.332031 -1.273438 13.3125 -1.046875 C 13.289062 -0.816406 13.28125 -0.570312 13.28125 -0.3125 L 13.28125 1.703125 C 13.320312 2.171875 13.21875 2.640625 12.96875 3.109375 C 12.8125 3.367188 12.601562 3.546875 12.34375 3.640625 C 12.082031 3.742188 11.820312 3.769531 11.5625 3.71875 C 10.84375 3.46875 10.378906 3.003906 10.171875 2.328125 L 9.9375 1.390625 C 9.882812 1.035156 9.789062 0.6875 9.65625 0.34375 C 9.53125 0.0078125 9.335938 -0.3125 9.078125 -0.625 C 8.972656 -0.832031 8.867188 -1.035156 8.765625 -1.234375 C 8.660156 -1.441406 8.5625 -1.648438 8.46875 -1.859375 C 8.257812 -2.328125 8.085938 -2.804688 7.953125 -3.296875 C 7.828125 -3.785156 7.710938 -4.289062 7.609375 -4.8125 C 7.554688 -5.125 7.53125 -5.421875 7.53125 -5.703125 C 7.53125 -5.984375 7.53125 -6.28125 7.53125 -6.59375 C 7.53125 -6.800781 7.515625 -7.007812 7.484375 -7.21875 C 7.460938 -7.425781 7.453125 -7.632812 7.453125 -7.84375 C 7.398438 -8.207031 7.375 -8.566406 7.375 -8.921875 C 7.375 -9.285156 7.375 -9.648438 7.375 -10.015625 C 7.375 -10.273438 7.375 -10.554688 7.375 -10.859375 C 7.375 -11.171875 7.320312 -11.457031 7.21875 -11.71875 L 7.21875 -12.03125 C 7.21875 -12.550781 7.191406 -13.039062 7.140625 -13.5 C 7.085938 -13.96875 7.035156 -14.460938 6.984375 -14.984375 C 6.984375 -15.085938 6.957031 -15.164062 6.90625 -15.21875 C 6.851562 -15.53125 6.800781 -15.851562 6.75 -16.1875 C 6.695312 -16.519531 6.617188 -16.84375 6.515625 -17.15625 C 6.410156 -17.570312 6.316406 -17.984375 6.234375 -18.390625 C 6.160156 -18.804688 6.078125 -19.222656 5.984375 -19.640625 C 5.929688 -20.003906 5.878906 -20.351562 5.828125 -20.6875 C 5.773438 -21.019531 5.695312 -21.367188 5.59375 -21.734375 C 5.539062 -21.941406 5.5 -22.132812 5.46875 -22.3125 C 5.445312 -22.5 5.4375 -22.695312 5.4375 -22.90625 C 5.382812 -23.207031 5.34375 -23.5 5.3125 -23.78125 C 5.289062 -24.070312 5.28125 -24.347656 5.28125 -24.609375 C 5.226562 -25.023438 5.175781 -25.453125 5.125 -25.890625 C 5.070312 -26.328125 4.992188 -26.753906 4.890625 -27.171875 C 4.835938 -27.429688 4.796875 -27.703125 4.765625 -27.984375 C 4.742188 -28.265625 4.734375 -28.535156 4.734375 -28.796875 C 4.679688 -29.472656 4.613281 -30.117188 4.53125 -30.734375 C 4.457031 -31.359375 4.421875 -32.007812 4.421875 -32.6875 C 4.421875 -32.9375 4.40625 -33.175781 4.375 -33.40625 C 4.351562 -33.644531 4.34375 -33.867188 4.34375 -34.078125 C 4.289062 -34.546875 4.222656 -35.023438 4.140625 -35.515625 C 4.066406 -36.003906 4.003906 -36.484375 3.953125 -36.953125 L 3.5 -40.046875 C 3.445312 -40.617188 3.394531 -41.210938 3.34375 -41.828125 C 3.289062 -42.453125 3.265625 -43.050781 3.265625 -43.625 C 3.265625 -43.988281 3.265625 -44.347656 3.265625 -44.703125 C 3.265625 -45.066406 3.238281 -45.429688 3.1875 -45.796875 C 3.082031 -46.472656 3.109375 -47.117188 3.265625 -47.734375 C 3.421875 -48.460938 3.726562 -49.085938 4.1875 -49.609375 C 4.34375 -49.804688 4.5 -49.984375 4.65625 -50.140625 C 4.8125 -50.296875 4.96875 -50.453125 5.125 -50.609375 C 5.4375 -50.867188 5.785156 -51.050781 6.171875 -51.15625 C 6.554688 -51.257812 6.929688 -51.335938 7.296875 -51.390625 C 7.554688 -51.390625 7.816406 -51.375 8.078125 -51.34375 C 8.335938 -51.320312 8.566406 -51.285156 8.765625 -51.234375 C 9.078125 -51.128906 9.398438 -51.0625 9.734375 -51.03125 C 10.078125 -51.007812 10.429688 -51 10.796875 -51 C 11.460938 -51 12.117188 -51 12.765625 -51 C 13.410156 -51 14.070312 -50.972656 14.75 -50.921875 C 15.9375 -50.921875 17.148438 -50.84375 18.390625 -50.6875 C 19.117188 -50.582031 19.804688 -50.4375 20.453125 -50.25 C 21.097656 -50.070312 21.757812 -49.859375 22.4375 -49.609375 C 23.570312 -49.191406 24.628906 -48.722656 25.609375 -48.203125 C 26.078125 -47.992188 26.519531 -47.75 26.9375 -47.46875 C 27.351562 -47.1875 27.738281 -46.863281 28.09375 -46.5 C 28.25 -46.34375 28.40625 -46.1875 28.5625 -46.03125 C 28.71875 -45.875 28.847656 -45.691406 28.953125 -45.484375 C 29.109375 -45.328125 29.265625 -45.171875 29.421875 -45.015625 C 29.578125 -44.867188 29.679688 -44.664062 29.734375 -44.40625 C 29.835938 -44.195312 29.890625 -44.09375 29.890625 -44.09375 C 30.242188 -43.570312 30.507812 -43 30.6875 -42.375 C 30.875 -41.757812 31.019531 -41.140625 31.125 -40.515625 C 31.226562 -40.003906 31.238281 -39.5 31.15625 -39 C 31.082031 -38.507812 31.019531 -38.007812 30.96875 -37.5 C 30.96875 -37.132812 30.941406 -36.796875 30.890625 -36.484375 C 30.835938 -36.171875 30.757812 -35.859375 30.65625 -35.546875 C 30.601562 -35.035156 30.460938 -34.546875 30.234375 -34.078125 C 30.003906 -33.609375 29.757812 -33.164062 29.5 -32.75 C 29.5 -32.707031 29.472656 -32.671875 29.421875 -32.640625 C 29.367188 -32.617188 29.316406 -32.554688 29.265625 -32.453125 C 28.898438 -32.035156 28.5 -31.617188 28.0625 -31.203125 C 27.625 -30.785156 27.117188 -30.425781 26.546875 -30.125 C 26.335938 -30.019531 26.140625 -29.890625 25.953125 -29.734375 C 25.773438 -29.578125 25.5625 -29.445312 25.3125 -29.34375 C 25.207031 -29.238281 25.207031 -29.132812 25.3125 -29.03125 C 25.507812 -28.820312 25.660156 -28.691406 25.765625 -28.640625 C 26.128906 -28.328125 26.503906 -28.015625 26.890625 -27.703125 C 27.285156 -27.398438 27.660156 -27.09375 28.015625 -26.78125 C 28.429688 -26.519531 28.796875 -26.222656 29.109375 -25.890625 C 29.421875 -25.554688 29.757812 -25.234375 30.125 -24.921875 C 30.476562 -24.554688 30.835938 -24.191406 31.203125 -23.828125 C 31.566406 -23.460938 31.929688 -23.101562 32.296875 -22.75 C 32.398438 -22.695312 32.5 -22.617188 32.59375 -22.515625 C 32.695312 -22.410156 32.800781 -22.304688 32.90625 -22.203125 C 33.164062 -21.992188 33.398438 -21.785156 33.609375 -21.578125 C 33.816406 -21.367188 34.023438 -21.132812 34.234375 -20.875 C 34.335938 -20.675781 34.46875 -20.507812 34.625 -20.375 C 34.78125 -20.25 34.9375 -20.109375 35.09375 -19.953125 C 35.289062 -19.796875 35.46875 -19.640625 35.625 -19.484375 C 35.78125 -19.328125 35.960938 -19.144531 36.171875 -18.9375 C 36.429688 -18.625 36.71875 -18.300781 37.03125 -17.96875 C 37.34375 -17.632812 37.648438 -17.3125 37.953125 -17 L 38.421875 -16.453125 C 38.523438 -16.347656 38.628906 -16.242188 38.734375 -16.140625 C 38.835938 -16.035156 38.914062 -15.929688 38.96875 -15.828125 C 39.4375 -15.316406 39.914062 -14.800781 40.40625 -14.28125 C 40.894531 -13.757812 41.398438 -13.21875 41.921875 -12.65625 L 42.390625 -12.1875 C 42.691406 -11.976562 42.984375 -11.707031 43.265625 -11.375 C 43.554688 -11.039062 43.832031 -10.742188 44.09375 -10.484375 C 44.300781 -10.328125 44.457031 -10.09375 44.5625 -9.78125 C 44.613281 -9.625 44.664062 -9.476562 44.71875 -9.34375 C 44.769531 -9.21875 44.820312 -9.078125 44.875 -8.921875 C 45.019531 -8.515625 45.066406 -8.128906 45.015625 -7.765625 C 44.960938 -7.660156 44.9375 -7.476562 44.9375 -7.21875 C 44.9375 -6.800781 44.847656 -6.410156 44.671875 -6.046875 C 44.492188 -5.691406 44.273438 -5.359375 44.015625 -5.046875 L 43.3125 -4.421875 C 42.695312 -3.804688 42.3125 -3.003906 42.15625 -2.015625 C 42.101562 -1.492188 42.0625 -0.972656 42.03125 -0.453125 C 42.007812 0.0546875 42 0.597656 42 1.171875 C 42 1.734375 42 2.296875 42 2.859375 C 42 3.429688 42.023438 4.003906 42.078125 4.578125 L 42.078125 5.59375 C 42.128906 5.75 42.15625 6.03125 42.15625 6.4375 L 42.15625 17.078125 C 42.15625 17.441406 42.140625 17.816406 42.109375 18.203125 C 42.085938 18.585938 42.078125 18.988281 42.078125 19.40625 C 42.023438 19.613281 42 19.820312 42 20.03125 C 42 20.238281 42 20.441406 42 20.640625 L 42 22.203125 C 42 22.460938 42.023438 22.671875 42.078125 22.828125 C 42.179688 23.648438 42.21875 24.472656 42.1875 25.296875 C 42.164062 26.128906 42.179688 26.988281 42.234375 27.875 C 42.234375 28.332031 42.023438 28.769531 41.609375 29.1875 C 41.191406 29.601562 40.773438 29.628906 40.359375 29.265625 Z M 13.28125 -32.6875 C 13.320312 -32.726562 13.367188 -32.75 13.421875 -32.75 C 13.472656 -32.75 13.523438 -32.773438 13.578125 -32.828125 C 14.410156 -33.398438 15.238281 -33.660156 16.0625 -33.609375 C 16.375 -33.609375 16.609375 -33.582031 16.765625 -33.53125 C 17.179688 -33.425781 17.546875 -33.503906 17.859375 -33.765625 C 18.316406 -34.023438 18.78125 -34.242188 19.25 -34.421875 C 19.71875 -34.609375 20.160156 -34.832031 20.578125 -35.09375 C 20.617188 -35.09375 20.640625 -35.101562 20.640625 -35.125 C 20.640625 -35.15625 20.664062 -35.171875 20.71875 -35.171875 C 21.394531 -35.367188 22.019531 -35.726562 22.59375 -36.25 C 23.101562 -36.613281 23.394531 -36.859375 23.46875 -36.984375 C 23.550781 -37.117188 23.644531 -37.519531 23.75 -38.1875 L 23.75 -38.5 C 23.75 -38.8125 23.722656 -39.097656 23.671875 -39.359375 C 23.617188 -39.617188 23.59375 -39.847656 23.59375 -40.046875 C 23.4375 -40.617188 23.128906 -41.0625 22.671875 -41.375 C 22.203125 -41.6875 21.707031 -41.921875 21.1875 -42.078125 C 20.625 -42.328125 20.03125 -42.515625 19.40625 -42.640625 C 18.78125 -42.773438 18.1875 -42.894531 17.625 -43 C 17.570312 -43 17.53125 -43.007812 17.5 -43.03125 C 17.476562 -43.0625 17.441406 -43.078125 17.390625 -43.078125 C 16.867188 -43.179688 16.398438 -43.078125 15.984375 -42.765625 C 15.984375 -42.765625 15.96875 -42.765625 15.9375 -42.765625 C 15.914062 -42.765625 15.878906 -42.738281 15.828125 -42.6875 C 15.265625 -42.382812 14.75 -42.304688 14.28125 -42.453125 L 13.890625 -42.453125 C 13.117188 -42.453125 12.578125 -42.117188 12.265625 -41.453125 C 12.160156 -41.140625 12.109375 -40.90625 12.109375 -40.75 C 12.109375 -40.488281 12.109375 -40.203125 12.109375 -39.890625 C 12.109375 -39.585938 12.132812 -39.304688 12.1875 -39.046875 C 12.289062 -38.734375 12.34375 -38.5 12.34375 -38.34375 C 12.34375 -37.976562 12.367188 -37.640625 12.421875 -37.328125 C 12.472656 -37.023438 12.523438 -36.71875 12.578125 -36.40625 C 12.628906 -36.351562 12.65625 -36.25 12.65625 -36.09375 C 12.601562 -35.882812 12.585938 -35.703125 12.609375 -35.546875 C 12.640625 -35.390625 12.65625 -35.210938 12.65625 -35.015625 C 12.707031 -34.804688 12.742188 -34.625 12.765625 -34.46875 C 12.796875 -34.3125 12.785156 -34.15625 12.734375 -34 C 12.734375 -33.582031 12.8125 -33.164062 12.96875 -32.75 C 12.96875 -32.707031 13.003906 -32.671875 13.078125 -32.640625 C 13.160156 -32.617188 13.226562 -32.632812 13.28125 -32.6875 Z M 13.28125 -32.6875 "/></g></g></g><g fill="#e4e2dd" fill-opacity="1"><g transform="translate(171.458065, 201.835885)"><g><path d="M 28.09375 -0.078125 C 27.425781 0.078125 26.726562 0.0234375 26 -0.234375 C 25.789062 -0.285156 25.625 -0.363281 25.5 -0.46875 C 25.375 -0.570312 25.234375 -0.675781 25.078125 -0.78125 C 24.710938 -1.039062 24.425781 -1.425781 24.21875 -1.9375 L 23.90625 -2.953125 C 23.90625 -3.054688 23.890625 -3.144531 23.859375 -3.21875 C 23.835938 -3.300781 23.828125 -3.367188 23.828125 -3.421875 C 23.828125 -4.140625 23.773438 -4.847656 23.671875 -5.546875 C 23.566406 -6.242188 23.460938 -6.929688 23.359375 -7.609375 C 23.253906 -8.128906 23.164062 -8.644531 23.09375 -9.15625 C 23.019531 -9.675781 22.929688 -10.195312 22.828125 -10.71875 C 22.828125 -10.820312 22.8125 -10.894531 22.78125 -10.9375 C 22.757812 -10.988281 22.75 -11.039062 22.75 -11.09375 C 22.644531 -11.71875 22.539062 -12.335938 22.4375 -12.953125 C 22.332031 -13.578125 22.226562 -14.175781 22.125 -14.75 C 22.070312 -15.0625 22.03125 -15.367188 22 -15.671875 C 21.976562 -15.984375 21.914062 -16.296875 21.8125 -16.609375 L 21.34375 -20.03125 C 21.289062 -20.488281 21.222656 -20.960938 21.140625 -21.453125 C 21.066406 -21.953125 20.976562 -22.460938 20.875 -22.984375 C 20.820312 -23.492188 20.742188 -23.992188 20.640625 -24.484375 C 20.546875 -24.984375 20.445312 -25.460938 20.34375 -25.921875 L 19.171875 -31.046875 C 19.066406 -31.617188 18.960938 -32.1875 18.859375 -32.75 C 18.753906 -33.320312 18.625 -33.867188 18.46875 -34.390625 C 18.3125 -34.859375 18.179688 -35.335938 18.078125 -35.828125 C 17.984375 -36.316406 17.832031 -36.796875 17.625 -37.265625 L 17.546875 -37.578125 C 17.390625 -38.242188 17.191406 -38.882812 16.953125 -39.5 C 16.722656 -40.125 16.476562 -40.75 16.21875 -41.375 C 16.21875 -41.425781 16.203125 -41.460938 16.171875 -41.484375 C 16.148438 -41.515625 16.140625 -41.53125 16.140625 -41.53125 C 16.035156 -41.84375 15.859375 -41.945312 15.609375 -41.84375 C 15.554688 -41.789062 15.476562 -41.765625 15.375 -41.765625 C 15.164062 -41.710938 14.96875 -41.632812 14.78125 -41.53125 C 14.601562 -41.425781 14.410156 -41.320312 14.203125 -41.21875 C 13.679688 -41.0625 13.242188 -40.828125 12.890625 -40.515625 L 10.796875 -39.046875 C 10.484375 -38.890625 10.207031 -38.679688 9.96875 -38.421875 C 9.738281 -38.160156 9.519531 -37.898438 9.3125 -37.640625 C 9.15625 -37.441406 9.078125 -37.210938 9.078125 -36.953125 L 8.84375 -35.546875 C 8.789062 -35.035156 8.738281 -34.492188 8.6875 -33.921875 C 8.632812 -33.347656 8.582031 -32.78125 8.53125 -32.21875 C 8.488281 -31.695312 8.425781 -31.21875 8.34375 -30.78125 C 8.269531 -30.34375 8.234375 -29.863281 8.234375 -29.34375 C 8.234375 -28.925781 8.15625 -28.484375 8 -28.015625 C 7.84375 -27.453125 7.453125 -27.09375 6.828125 -26.9375 C 6.359375 -26.882812 5.972656 -27.039062 5.671875 -27.40625 C 5.410156 -27.664062 5.226562 -28.050781 5.125 -28.5625 C 5.070312 -28.925781 5.019531 -29.265625 4.96875 -29.578125 C 4.914062 -29.890625 4.890625 -30.222656 4.890625 -30.578125 L 4.890625 -32.90625 C 4.890625 -33.375 4.875 -33.816406 4.84375 -34.234375 C 4.820312 -34.648438 4.835938 -35.035156 4.890625 -35.390625 C 4.890625 -36.273438 4.679688 -37.128906 4.265625 -37.953125 L 3.109375 -40.359375 C 2.898438 -40.773438 2.71875 -41.332031 2.5625 -42.03125 C 2.40625 -42.726562 2.328125 -43.3125 2.328125 -43.78125 C 2.429688 -44.96875 2.867188 -45.953125 3.640625 -46.734375 C 4.316406 -47.398438 5.097656 -47.835938 5.984375 -48.046875 C 6.285156 -48.148438 6.695312 -48.253906 7.21875 -48.359375 L 11.328125 -49.0625 C 11.742188 -49.113281 12.144531 -49.175781 12.53125 -49.25 C 12.925781 -49.332031 13.300781 -49.398438 13.65625 -49.453125 C 14.4375 -49.554688 15.226562 -49.65625 16.03125 -49.75 C 16.832031 -49.851562 17.644531 -49.929688 18.46875 -49.984375 C 18.9375 -50.035156 19.40625 -50.085938 19.875 -50.140625 C 20.34375 -50.191406 20.804688 -50.242188 21.265625 -50.296875 L 21.578125 -50.296875 C 22.046875 -50.347656 22.5 -50.382812 22.9375 -50.40625 C 23.375 -50.4375 23.828125 -50.476562 24.296875 -50.53125 C 24.554688 -50.582031 24.816406 -50.609375 25.078125 -50.609375 C 25.335938 -50.609375 25.566406 -50.632812 25.765625 -50.6875 C 25.816406 -50.738281 25.921875 -50.765625 26.078125 -50.765625 L 28.953125 -51 C 29.523438 -51.050781 30.082031 -51.101562 30.625 -51.15625 C 31.164062 -51.207031 31.722656 -51.257812 32.296875 -51.3125 C 32.753906 -51.363281 33.21875 -51.425781 33.6875 -51.5 C 34.15625 -51.582031 34.625 -51.726562 35.09375 -51.9375 C 35.550781 -52.132812 36.023438 -52.195312 36.515625 -52.125 C 37.015625 -52.050781 37.46875 -51.910156 37.875 -51.703125 C 38.03125 -51.648438 38.171875 -51.554688 38.296875 -51.421875 C 38.429688 -51.296875 38.550781 -51.179688 38.65625 -51.078125 C 38.914062 -50.816406 39.125 -50.519531 39.28125 -50.1875 C 39.4375 -49.851562 39.59375 -49.53125 39.75 -49.21875 C 39.90625 -48.90625 39.90625 -48.59375 39.75 -48.28125 C 39.644531 -48.070312 39.578125 -47.851562 39.546875 -47.625 C 39.523438 -47.394531 39.488281 -47.148438 39.4375 -46.890625 C 39.4375 -46.628906 39.359375 -46.421875 39.203125 -46.265625 C 39.097656 -46.210938 38.992188 -46.132812 38.890625 -46.03125 C 38.785156 -45.925781 38.679688 -45.820312 38.578125 -45.71875 C 38.421875 -45.664062 38.265625 -45.507812 38.109375 -45.25 C 37.796875 -44.84375 37.359375 -44.640625 36.796875 -44.640625 C 36.585938 -44.640625 36.390625 -44.613281 36.203125 -44.5625 C 36.023438 -44.507812 35.832031 -44.457031 35.625 -44.40625 C 35.164062 -44.300781 34.859375 -44.144531 34.703125 -43.9375 C 34.441406 -43.675781 34.15625 -43.546875 33.84375 -43.546875 C 33.476562 -43.441406 33.191406 -43.546875 32.984375 -43.859375 C 32.929688 -44.015625 32.804688 -44.09375 32.609375 -44.09375 C 32.398438 -44.039062 32.175781 -44.015625 31.9375 -44.015625 C 31.707031 -44.015625 31.488281 -44.015625 31.28125 -44.015625 C 31.070312 -43.960938 30.851562 -43.9375 30.625 -43.9375 C 30.394531 -43.9375 30.148438 -43.910156 29.890625 -43.859375 C 29.679688 -43.859375 29.5 -43.84375 29.34375 -43.8125 C 29.1875 -43.789062 29.003906 -43.78125 28.796875 -43.78125 C 28.273438 -43.726562 27.742188 -43.675781 27.203125 -43.625 C 26.660156 -43.570312 26.101562 -43.519531 25.53125 -43.46875 C 25.226562 -43.46875 25 -43.441406 24.84375 -43.390625 C 24.632812 -43.285156 24.53125 -43.128906 24.53125 -42.921875 C 24.476562 -42.710938 24.476562 -42.457031 24.53125 -42.15625 L 25 -39.75 C 25.101562 -39.28125 25.207031 -38.800781 25.3125 -38.3125 C 25.414062 -37.820312 25.515625 -37.316406 25.609375 -36.796875 L 25.84375 -35.09375 C 25.84375 -34.882812 25.851562 -34.6875 25.875 -34.5 C 25.90625 -34.320312 25.945312 -34.128906 26 -33.921875 C 26.101562 -33.296875 26.21875 -32.671875 26.34375 -32.046875 C 26.476562 -31.429688 26.570312 -30.816406 26.625 -30.203125 L 26.703125 -29.890625 C 26.910156 -29.210938 27.066406 -28.535156 27.171875 -27.859375 C 27.273438 -27.191406 27.378906 -26.492188 27.484375 -25.765625 C 27.585938 -25.304688 27.6875 -24.828125 27.78125 -24.328125 C 27.882812 -23.835938 27.960938 -23.363281 28.015625 -22.90625 C 28.066406 -22.539062 28.117188 -22.1875 28.171875 -21.84375 C 28.222656 -21.507812 28.273438 -21.160156 28.328125 -20.796875 L 28.328125 -20.421875 C 28.378906 -20.003906 28.441406 -19.597656 28.515625 -19.203125 C 28.597656 -18.816406 28.664062 -18.421875 28.71875 -18.015625 L 28.953125 -15.6875 C 29.003906 -15.320312 29.054688 -14.957031 29.109375 -14.59375 C 29.160156 -14.226562 29.210938 -13.835938 29.265625 -13.421875 C 29.265625 -13.328125 29.273438 -13.210938 29.296875 -13.078125 C 29.328125 -12.953125 29.34375 -12.835938 29.34375 -12.734375 C 29.34375 -12.472656 29.367188 -12.195312 29.421875 -11.90625 C 29.472656 -11.625 29.523438 -11.328125 29.578125 -11.015625 C 29.679688 -10.453125 29.785156 -9.875 29.890625 -9.28125 C 29.992188 -8.6875 30.097656 -8.078125 30.203125 -7.453125 C 30.253906 -7.085938 30.328125 -6.738281 30.421875 -6.40625 C 30.523438 -6.070312 30.601562 -5.722656 30.65625 -5.359375 C 30.707031 -5.097656 30.863281 -4.835938 31.125 -4.578125 C 31.332031 -4.421875 31.382812 -4.238281 31.28125 -4.03125 C 31.125 -3.820312 31.03125 -3.585938 31 -3.328125 C 30.976562 -3.078125 30.941406 -2.820312 30.890625 -2.5625 C 30.890625 -2.351562 30.863281 -2.195312 30.8125 -2.09375 C 30.8125 -1.832031 30.707031 -1.648438 30.5 -1.546875 C 30.300781 -1.441406 30.097656 -1.238281 29.890625 -0.9375 C 29.628906 -0.675781 29.421875 -0.492188 29.265625 -0.390625 C 29.109375 -0.234375 28.898438 -0.15625 28.640625 -0.15625 C 28.535156 -0.207031 28.351562 -0.179688 28.09375 -0.078125 Z M 28.09375 -0.078125 "/></g></g></g><g fill="#e4e2dd" fill-opacity="1"><g transform="translate(205.224645, 201.835885)"><g><path d="M 15.375 10.09375 C 14.957031 9.988281 14.671875 9.753906 14.515625 9.390625 C 14.410156 8.972656 14.304688 8.582031 14.203125 8.21875 C 14.097656 7.863281 14.046875 7.503906 14.046875 7.140625 L 14.046875 6.671875 C 14.097656 6.160156 14.070312 5.65625 13.96875 5.15625 C 13.863281 4.664062 13.785156 4.160156 13.734375 3.640625 C 13.734375 3.441406 13.707031 3.289062 13.65625 3.1875 L 12.8125 1.546875 C 12.707031 1.441406 12.550781 1.238281 12.34375 0.9375 C 12.1875 0.570312 12.015625 0.25 11.828125 -0.03125 C 11.648438 -0.320312 11.457031 -0.625 11.25 -0.9375 C 11.144531 -1.132812 11.015625 -1.3125 10.859375 -1.46875 C 10.710938 -1.625 10.5625 -1.804688 10.40625 -2.015625 C 10.300781 -2.171875 10.195312 -2.351562 10.09375 -2.5625 C 9.988281 -2.769531 9.832031 -2.953125 9.625 -3.109375 L 9.390625 -3.5 C 9.179688 -3.851562 8.984375 -4.1875 8.796875 -4.5 C 8.617188 -4.8125 8.457031 -5.125 8.3125 -5.4375 L 8.078125 -5.90625 C 7.867188 -6.570312 7.644531 -7.210938 7.40625 -7.828125 C 7.175781 -8.453125 6.929688 -9.101562 6.671875 -9.78125 C 6.515625 -10.195312 6.375 -10.582031 6.25 -10.9375 C 6.125 -11.300781 5.957031 -11.664062 5.75 -12.03125 C 5.382812 -12.8125 5.148438 -13.640625 5.046875 -14.515625 C 4.992188 -15.140625 5.046875 -15.785156 5.203125 -16.453125 C 5.359375 -16.867188 5.59375 -17.234375 5.90625 -17.546875 C 6.882812 -18.367188 7.96875 -18.675781 9.15625 -18.46875 L 10.015625 -18.3125 C 10.628906 -18.0625 11.066406 -17.703125 11.328125 -17.234375 C 11.535156 -16.867188 11.71875 -16.492188 11.875 -16.109375 C 12.03125 -15.722656 12.132812 -15.296875 12.1875 -14.828125 C 12.289062 -14.515625 12.394531 -14.1875 12.5 -13.84375 C 12.601562 -13.507812 12.734375 -13.164062 12.890625 -12.8125 C 13.148438 -12.238281 13.429688 -11.664062 13.734375 -11.09375 C 13.992188 -10.632812 14.304688 -10.25 14.671875 -9.9375 C 14.929688 -9.726562 15.210938 -9.492188 15.515625 -9.234375 C 15.828125 -8.972656 16.113281 -8.71875 16.375 -8.46875 L 18.015625 -6.828125 C 18.117188 -6.773438 18.207031 -6.695312 18.28125 -6.59375 C 18.351562 -6.488281 18.414062 -6.382812 18.46875 -6.28125 C 18.625 -6.175781 18.804688 -6.148438 19.015625 -6.203125 C 19.535156 -6.359375 20.054688 -6.644531 20.578125 -7.0625 C 21.398438 -7.738281 22.070312 -8.4375 22.59375 -9.15625 C 23.101562 -9.882812 23.4375 -10.738281 23.59375 -11.71875 C 23.695312 -12.601562 23.441406 -13.378906 22.828125 -14.046875 C 22.722656 -14.253906 22.566406 -14.382812 22.359375 -14.4375 C 21.992188 -14.644531 21.640625 -14.835938 21.296875 -15.015625 C 20.960938 -15.203125 20.59375 -15.347656 20.1875 -15.453125 C 19.769531 -15.609375 19.40625 -15.835938 19.09375 -16.140625 C 18.882812 -16.398438 18.578125 -16.554688 18.171875 -16.609375 C 17.804688 -16.710938 17.46875 -16.84375 17.15625 -17 C 16.84375 -17.15625 16.554688 -17.335938 16.296875 -17.546875 C 15.984375 -17.804688 15.671875 -18.023438 15.359375 -18.203125 C 15.054688 -18.378906 14.75 -18.570312 14.4375 -18.78125 C 14.125 -18.9375 13.828125 -19.117188 13.546875 -19.328125 C 13.265625 -19.535156 12.992188 -19.742188 12.734375 -19.953125 C 12.367188 -20.210938 12.03125 -20.484375 11.71875 -20.765625 C 11.40625 -21.046875 11.097656 -21.316406 10.796875 -21.578125 C 10.585938 -21.679688 10.457031 -21.785156 10.40625 -21.890625 C 10.144531 -22.203125 9.867188 -22.5 9.578125 -22.78125 C 9.296875 -23.0625 9.023438 -23.382812 8.765625 -23.75 C 8.609375 -23.957031 8.453125 -24.148438 8.296875 -24.328125 C 8.148438 -24.515625 7.972656 -24.710938 7.765625 -24.921875 C 7.554688 -25.128906 7.359375 -25.347656 7.171875 -25.578125 C 6.992188 -25.804688 6.851562 -26.050781 6.75 -26.3125 L 6.0625 -27.484375 C 5.800781 -27.992188 5.566406 -28.507812 5.359375 -29.03125 C 5.148438 -29.550781 4.914062 -30.066406 4.65625 -30.578125 C 4.445312 -31.148438 4.25 -31.71875 4.0625 -32.28125 C 3.882812 -32.851562 3.742188 -33.425781 3.640625 -34 C 3.597656 -34.414062 3.535156 -34.800781 3.453125 -35.15625 C 3.378906 -35.519531 3.316406 -35.882812 3.265625 -36.25 C 3.210938 -36.820312 3.1875 -37.378906 3.1875 -37.921875 C 3.1875 -38.460938 3.160156 -39.019531 3.109375 -39.59375 C 3.109375 -40.257812 3.160156 -40.925781 3.265625 -41.59375 C 3.367188 -42.269531 3.492188 -42.945312 3.640625 -43.625 C 3.742188 -44.039062 3.847656 -44.453125 3.953125 -44.859375 C 4.054688 -45.273438 4.160156 -45.664062 4.265625 -46.03125 C 4.367188 -46.289062 4.472656 -46.535156 4.578125 -46.765625 C 4.679688 -47.003906 4.757812 -47.222656 4.8125 -47.421875 C 5.226562 -48.515625 5.820312 -49.601562 6.59375 -50.6875 C 6.851562 -51.050781 7.125 -51.398438 7.40625 -51.734375 C 7.695312 -52.066406 8 -52.390625 8.3125 -52.703125 C 8.5625 -52.960938 8.816406 -53.25 9.078125 -53.5625 C 9.335938 -53.875 9.570312 -54.1875 9.78125 -54.5 C 10.457031 -55.375 11.234375 -56.019531 12.109375 -56.4375 C 12.984375 -56.894531 13.992188 -57.078125 15.140625 -56.984375 C 16.535156 -56.773438 17.851562 -56.226562 19.09375 -55.34375 C 19.507812 -55.03125 19.9375 -54.707031 20.375 -54.375 C 20.8125 -54.039062 21.238281 -53.691406 21.65625 -53.328125 C 22.6875 -52.503906 23.539062 -51.570312 24.21875 -50.53125 C 24.53125 -50.0625 24.835938 -49.59375 25.140625 -49.125 C 25.453125 -48.664062 25.738281 -48.203125 26 -47.734375 C 26.15625 -47.523438 26.285156 -47.316406 26.390625 -47.109375 C 26.492188 -46.910156 26.570312 -46.679688 26.625 -46.421875 C 26.726562 -45.953125 26.765625 -45.5 26.734375 -45.0625 C 26.710938 -44.625 26.648438 -44.171875 26.546875 -43.703125 L 26.3125 -43.078125 C 26.15625 -42.816406 26 -42.53125 25.84375 -42.21875 C 25.6875 -41.914062 25.535156 -41.632812 25.390625 -41.375 C 25.285156 -41.164062 25.164062 -40.96875 25.03125 -40.78125 C 24.90625 -40.601562 24.789062 -40.4375 24.6875 -40.28125 C 24.269531 -39.613281 24.0625 -38.941406 24.0625 -38.265625 L 24.0625 -30.734375 C 24.0625 -29.703125 23.90625 -28.722656 23.59375 -27.796875 C 23.59375 -27.742188 23.578125 -27.703125 23.546875 -27.671875 C 23.523438 -27.648438 23.515625 -27.585938 23.515625 -27.484375 C 23.515625 -27.222656 23.59375 -27.015625 23.75 -26.859375 L 24.453125 -26.390625 C 25.023438 -26.023438 25.554688 -25.625 26.046875 -25.1875 C 26.535156 -24.75 27.039062 -24.320312 27.5625 -23.90625 C 27.863281 -23.644531 28.144531 -23.347656 28.40625 -23.015625 C 28.664062 -22.679688 28.898438 -22.359375 29.109375 -22.046875 C 29.316406 -21.785156 29.5 -21.507812 29.65625 -21.21875 C 29.8125 -20.9375 29.96875 -20.671875 30.125 -20.421875 C 30.375 -20.054688 30.5625 -19.640625 30.6875 -19.171875 C 30.820312 -18.703125 30.941406 -18.238281 31.046875 -17.78125 L 31.046875 -17.46875 C 30.992188 -17.101562 30.992188 -16.710938 31.046875 -16.296875 C 31.097656 -15.890625 31.148438 -15.476562 31.203125 -15.0625 C 31.203125 -14.957031 31.210938 -14.835938 31.234375 -14.703125 C 31.265625 -14.578125 31.253906 -14.4375 31.203125 -14.28125 L 30.96875 -12.65625 C 30.863281 -12.394531 30.914062 -12.238281 31.125 -12.1875 C 31.28125 -12.1875 31.359375 -12.132812 31.359375 -12.03125 C 31.515625 -11.976562 31.539062 -11.847656 31.4375 -11.640625 C 31.332031 -11.429688 31.203125 -11.378906 31.046875 -11.484375 C 31.046875 -11.535156 31.019531 -11.5625 30.96875 -11.5625 C 30.8125 -11.613281 30.707031 -11.585938 30.65625 -11.484375 C 30.601562 -11.328125 30.5625 -11.171875 30.53125 -11.015625 C 30.507812 -10.867188 30.5 -10.691406 30.5 -10.484375 C 30.300781 -10.171875 30.25 -9.910156 30.34375 -9.703125 C 30.34375 -9.546875 30.320312 -9.441406 30.28125 -9.390625 C 30.125 -9.234375 30.070312 -9.023438 30.125 -8.765625 C 30.125 -8.660156 30.046875 -8.5625 29.890625 -8.46875 C 29.578125 -8.3125 29.34375 -8.023438 29.1875 -7.609375 C 28.925781 -6.929688 28.628906 -6.296875 28.296875 -5.703125 C 27.960938 -5.109375 27.585938 -4.523438 27.171875 -3.953125 C 26.753906 -3.390625 26.328125 -2.832031 25.890625 -2.28125 C 25.453125 -1.738281 24.945312 -1.238281 24.375 -0.78125 C 23.90625 -0.414062 23.410156 -0.0664062 22.890625 0.265625 C 22.378906 0.609375 21.835938 0.910156 21.265625 1.171875 C 21.054688 1.210938 20.847656 1.3125 20.640625 1.46875 L 19.71875 1.9375 C 19.300781 1.988281 18.882812 2.195312 18.46875 2.5625 L 18.015625 2.875 C 17.859375 3.03125 17.726562 3.285156 17.625 3.640625 L 17.625 5.75 C 17.625 5.957031 17.625 6.160156 17.625 6.359375 C 17.625 6.566406 17.597656 6.773438 17.546875 6.984375 C 17.492188 7.085938 17.46875 7.21875 17.46875 7.375 C 17.46875 7.53125 17.441406 7.660156 17.390625 7.765625 C 17.335938 7.972656 17.285156 8.191406 17.234375 8.421875 C 17.179688 8.648438 17.101562 8.894531 17 9.15625 C 16.738281 9.882812 16.195312 10.195312 15.375 10.09375 Z M 20.109375 -28.875 C 20.316406 -28.875 20.445312 -28.953125 20.5 -29.109375 C 20.550781 -29.367188 20.5625 -29.628906 20.53125 -29.890625 C 20.507812 -30.148438 20.472656 -30.378906 20.421875 -30.578125 C 20.367188 -30.835938 20.34375 -31.109375 20.34375 -31.390625 C 20.34375 -31.679688 20.316406 -31.957031 20.265625 -32.21875 C 20.265625 -32.53125 20.238281 -32.835938 20.1875 -33.140625 C 20.132812 -33.453125 20.132812 -33.765625 20.1875 -34.078125 C 20.238281 -34.128906 20.25 -34.164062 20.21875 -34.1875 C 20.195312 -34.21875 20.1875 -34.234375 20.1875 -34.234375 C 20.132812 -34.597656 20.109375 -34.929688 20.109375 -35.234375 C 20.109375 -35.546875 20.109375 -35.859375 20.109375 -36.171875 C 20.109375 -37.203125 19.898438 -38.210938 19.484375 -39.203125 C 19.117188 -40.023438 18.742188 -40.820312 18.359375 -41.59375 C 17.972656 -42.375 17.570312 -43.15625 17.15625 -43.9375 C 17 -44.25 16.800781 -44.546875 16.5625 -44.828125 C 16.332031 -45.109375 16.085938 -45.378906 15.828125 -45.640625 C 15.628906 -45.953125 15.347656 -46.003906 14.984375 -45.796875 C 14.671875 -45.742188 14.332031 -45.535156 13.96875 -45.171875 C 13.65625 -44.816406 13.367188 -44.429688 13.109375 -44.015625 C 12.859375 -43.597656 12.628906 -43.15625 12.421875 -42.6875 C 12.367188 -42.53125 12.316406 -42.375 12.265625 -42.21875 C 12.210938 -42.070312 12.160156 -41.945312 12.109375 -41.84375 C 12.054688 -41.476562 12.015625 -41.097656 11.984375 -40.703125 C 11.960938 -40.316406 11.953125 -39.921875 11.953125 -39.515625 L 11.953125 -38.5 C 11.953125 -37.78125 12.160156 -37.003906 12.578125 -36.171875 C 12.941406 -35.398438 13.457031 -34.625 14.125 -33.84375 C 14.28125 -33.632812 14.4375 -33.4375 14.59375 -33.25 C 14.75 -33.070312 14.90625 -32.859375 15.0625 -32.609375 C 15.53125 -31.984375 16.0625 -31.4375 16.65625 -30.96875 C 17.25 -30.507812 17.878906 -30.070312 18.546875 -29.65625 L 19.71875 -29.03125 C 19.820312 -28.976562 19.898438 -28.953125 19.953125 -28.953125 C 20.003906 -28.953125 20.054688 -28.925781 20.109375 -28.875 Z M 20.109375 -28.875 "/></g></g></g><g fill="#e4e2dd" fill-opacity="1"><g transform="translate(231.46162, 201.835885)"><g><path d="M 22.046875 8.15625 L 21.5 7.921875 C 21.238281 7.765625 21.109375 7.554688 21.109375 7.296875 C 21.054688 6.828125 20.925781 6.375 20.71875 5.9375 C 20.519531 5.5 20.289062 5.097656 20.03125 4.734375 C 19.613281 4.054688 19.328125 3.332031 19.171875 2.5625 C 19.171875 2.40625 19.15625 2.234375 19.125 2.046875 C 19.101562 1.867188 19.09375 1.703125 19.09375 1.546875 C 19.144531 0.671875 19.101562 -0.21875 18.96875 -1.125 C 18.84375 -2.03125 18.726562 -2.921875 18.625 -3.796875 C 18.570312 -4.160156 18.519531 -4.507812 18.46875 -4.84375 C 18.414062 -5.1875 18.363281 -5.539062 18.3125 -5.90625 C 18.257812 -6.050781 18.234375 -6.1875 18.234375 -6.3125 C 18.234375 -6.445312 18.210938 -6.566406 18.171875 -6.671875 C 18.066406 -7.191406 17.988281 -7.695312 17.9375 -8.1875 C 17.882812 -8.675781 17.804688 -9.179688 17.703125 -9.703125 C 17.648438 -10.015625 17.597656 -10.320312 17.546875 -10.625 C 17.492188 -10.9375 17.414062 -11.25 17.3125 -11.5625 C 17.257812 -11.976562 17.179688 -12.390625 17.078125 -12.796875 C 16.972656 -13.210938 16.867188 -13.628906 16.765625 -14.046875 C 16.710938 -14.410156 16.632812 -14.757812 16.53125 -15.09375 C 16.425781 -15.4375 16.347656 -15.785156 16.296875 -16.140625 C 16.242188 -16.296875 16.203125 -16.453125 16.171875 -16.609375 C 16.148438 -16.765625 16.085938 -16.921875 15.984375 -17.078125 L 15.765625 -17.625 C 15.660156 -18.082031 15.53125 -18.554688 15.375 -19.046875 C 15.21875 -19.546875 15.085938 -20.03125 14.984375 -20.5 C 14.878906 -20.800781 14.75 -21.109375 14.59375 -21.421875 C 14.4375 -21.734375 14.304688 -22.046875 14.203125 -22.359375 L 13.734375 -23.515625 C 13.628906 -23.878906 13.523438 -24.253906 13.421875 -24.640625 C 13.328125 -25.035156 13.226562 -25.410156 13.125 -25.765625 L 12.890625 -27.09375 C 12.835938 -27.351562 12.785156 -27.632812 12.734375 -27.9375 C 12.679688 -28.25 12.628906 -28.535156 12.578125 -28.796875 C 12.578125 -29.054688 12.5625 -29.273438 12.53125 -29.453125 C 12.507812 -29.640625 12.5 -29.835938 12.5 -30.046875 C 12.445312 -30.398438 12.421875 -30.742188 12.421875 -31.078125 C 12.421875 -31.421875 12.394531 -31.773438 12.34375 -32.140625 L 12.34375 -32.6875 C 12.445312 -33.039062 12.507812 -33.375 12.53125 -33.6875 C 12.5625 -34 12.601562 -34.3125 12.65625 -34.625 C 12.757812 -34.882812 12.757812 -35.113281 12.65625 -35.3125 L 12.1875 -36.328125 C 12.132812 -36.429688 12.09375 -36.507812 12.0625 -36.5625 C 12.039062 -36.613281 12.003906 -36.664062 11.953125 -36.71875 C 11.691406 -36.976562 11.457031 -37.273438 11.25 -37.609375 C 11.039062 -37.941406 10.8125 -38.265625 10.5625 -38.578125 L 10.40625 -38.8125 C 10.25 -39.125 10.078125 -39.445312 9.890625 -39.78125 C 9.710938 -40.113281 9.492188 -40.382812 9.234375 -40.59375 L 8.078125 -42.234375 C 7.867188 -42.535156 7.660156 -42.84375 7.453125 -43.15625 C 7.242188 -43.46875 7.007812 -43.78125 6.75 -44.09375 C 6.488281 -44.507812 6.21875 -44.910156 5.9375 -45.296875 C 5.65625 -45.679688 5.332031 -46.054688 4.96875 -46.421875 C 4.1875 -47.347656 3.566406 -48.410156 3.109375 -49.609375 L 2.640625 -51 C 2.328125 -51.875 2.25 -52.804688 2.40625 -53.796875 C 2.40625 -53.898438 2.414062 -54.003906 2.4375 -54.109375 C 2.46875 -54.210938 2.484375 -54.316406 2.484375 -54.421875 C 2.640625 -55.609375 3.257812 -56.585938 4.34375 -57.359375 C 4.550781 -57.515625 4.757812 -57.617188 4.96875 -57.671875 C 5.070312 -57.722656 5.1875 -57.75 5.3125 -57.75 C 5.445312 -57.75 5.566406 -57.773438 5.671875 -57.828125 C 5.972656 -57.929688 6.253906 -57.984375 6.515625 -57.984375 C 6.617188 -57.984375 6.734375 -57.957031 6.859375 -57.90625 C 6.992188 -57.851562 7.113281 -57.800781 7.21875 -57.75 C 7.425781 -57.695312 7.644531 -57.671875 7.875 -57.671875 C 8.113281 -57.671875 8.332031 -57.566406 8.53125 -57.359375 C 8.789062 -57.109375 9.023438 -56.835938 9.234375 -56.546875 C 9.441406 -56.265625 9.625 -55.941406 9.78125 -55.578125 C 9.882812 -55.316406 10.066406 -55.160156 10.328125 -55.109375 C 10.484375 -55.054688 10.613281 -54.925781 10.71875 -54.71875 C 10.71875 -54.664062 10.726562 -54.601562 10.75 -54.53125 C 10.78125 -54.457031 10.796875 -54.394531 10.796875 -54.34375 C 10.847656 -53.875 11.050781 -53.429688 11.40625 -53.015625 C 11.457031 -52.910156 11.535156 -52.804688 11.640625 -52.703125 C 12.054688 -52.191406 12.46875 -51.675781 12.875 -51.15625 C 13.289062 -50.632812 13.707031 -50.117188 14.125 -49.609375 C 14.226562 -49.453125 14.34375 -49.304688 14.46875 -49.171875 C 14.601562 -49.046875 14.695312 -48.90625 14.75 -48.75 C 15.375 -47.769531 15.992188 -46.8125 16.609375 -45.875 C 17.234375 -44.945312 17.828125 -44.015625 18.390625 -43.078125 L 19.015625 -42.15625 C 19.066406 -42.101562 19.101562 -42.078125 19.125 -42.078125 C 19.15625 -42.078125 19.195312 -42.050781 19.25 -42 C 19.351562 -41.894531 19.484375 -41.894531 19.640625 -42 L 20.421875 -42.765625 C 20.671875 -43.078125 20.9375 -43.390625 21.21875 -43.703125 C 21.507812 -44.015625 21.8125 -44.300781 22.125 -44.5625 C 22.84375 -45.28125 23.523438 -46.015625 24.171875 -46.765625 C 24.828125 -47.515625 25.488281 -48.253906 26.15625 -48.984375 C 26.414062 -49.296875 26.703125 -49.601562 27.015625 -49.90625 C 27.328125 -50.21875 27.613281 -50.503906 27.875 -50.765625 L 28.953125 -51.9375 C 29.367188 -52.445312 29.78125 -52.945312 30.1875 -53.4375 C 30.601562 -53.9375 31.019531 -54.441406 31.4375 -54.953125 C 31.75 -55.367188 32.046875 -55.757812 32.328125 -56.125 C 32.609375 -56.488281 32.929688 -56.847656 33.296875 -57.203125 C 34.128906 -58.140625 35.035156 -58.867188 36.015625 -59.390625 C 36.378906 -59.585938 36.71875 -59.800781 37.03125 -60.03125 C 37.34375 -60.269531 37.648438 -60.492188 37.953125 -60.703125 C 38.367188 -61.015625 38.914062 -61.222656 39.59375 -61.328125 C 40.78125 -61.429688 41.710938 -61.039062 42.390625 -60.15625 C 42.585938 -59.945312 42.765625 -59.710938 42.921875 -59.453125 C 43.078125 -59.203125 43.179688 -58.921875 43.234375 -58.609375 C 43.441406 -58.242188 43.492188 -57.773438 43.390625 -57.203125 C 43.390625 -56.742188 43.257812 -56.304688 43 -55.890625 C 42.6875 -55.210938 42.25 -54.539062 41.6875 -53.875 L 41.140625 -53.09375 C 41.035156 -52.882812 40.90625 -52.6875 40.75 -52.5 C 40.59375 -52.320312 40.460938 -52.160156 40.359375 -52.015625 C 40.253906 -51.859375 40.101562 -51.675781 39.90625 -51.46875 C 39.695312 -51.101562 39.445312 -50.800781 39.15625 -50.5625 C 38.875 -50.332031 38.578125 -50.085938 38.265625 -49.828125 C 38.054688 -49.679688 37.863281 -49.53125 37.6875 -49.375 C 37.507812 -49.21875 37.316406 -49.0625 37.109375 -48.90625 L 36.171875 -48.359375 C 35.804688 -48.203125 35.472656 -47.96875 35.171875 -47.65625 C 35.015625 -47.5 34.882812 -47.394531 34.78125 -47.34375 C 34.414062 -47.09375 34.0625 -46.796875 33.71875 -46.453125 C 33.382812 -46.117188 33.0625 -45.796875 32.75 -45.484375 C 32.550781 -45.273438 32.359375 -45.09375 32.171875 -44.9375 C 31.992188 -44.789062 31.800781 -44.640625 31.59375 -44.484375 C 31.382812 -44.328125 31.175781 -44.15625 30.96875 -43.96875 C 30.757812 -43.789062 30.550781 -43.625 30.34375 -43.46875 L 29.34375 -42.53125 C 29.289062 -42.476562 29.238281 -42.441406 29.1875 -42.421875 C 29.132812 -42.398438 29.082031 -42.363281 29.03125 -42.3125 C 28.507812 -41.6875 27.890625 -41.140625 27.171875 -40.671875 C 27.015625 -40.515625 26.9375 -40.4375 26.9375 -40.4375 C 26.882812 -40.226562 26.789062 -40.070312 26.65625 -39.96875 C 26.53125 -39.875 26.390625 -39.773438 26.234375 -39.671875 C 26.179688 -39.617188 26.128906 -39.566406 26.078125 -39.515625 C 26.023438 -39.460938 25.945312 -39.410156 25.84375 -39.359375 C 25.632812 -38.992188 25.375 -38.65625 25.0625 -38.34375 C 24.757812 -38.03125 24.453125 -37.75 24.140625 -37.5 C 23.984375 -37.394531 23.835938 -37.265625 23.703125 -37.109375 C 23.578125 -36.953125 23.460938 -36.796875 23.359375 -36.640625 C 23.253906 -36.535156 23.226562 -36.351562 23.28125 -36.09375 C 23.332031 -35.9375 23.382812 -35.765625 23.4375 -35.578125 C 23.488281 -35.398438 23.539062 -35.238281 23.59375 -35.09375 C 23.75 -34.570312 23.75 -34.023438 23.59375 -33.453125 C 23.59375 -33.398438 23.578125 -33.332031 23.546875 -33.25 C 23.523438 -33.175781 23.515625 -33.085938 23.515625 -32.984375 C 23.460938 -32.878906 23.382812 -32.78125 23.28125 -32.6875 C 23.175781 -32.582031 23.125 -32.453125 23.125 -32.296875 C 23.070312 -32.191406 23.046875 -32.035156 23.046875 -31.828125 C 23.046875 -31.566406 22.894531 -31.382812 22.59375 -31.28125 C 22.488281 -31.28125 22.382812 -31.203125 22.28125 -31.046875 C 22.226562 -30.992188 22.203125 -30.941406 22.203125 -30.890625 C 22.203125 -30.835938 22.148438 -30.785156 22.046875 -30.734375 C 21.734375 -30.578125 21.628906 -30.347656 21.734375 -30.046875 C 21.734375 -29.835938 21.742188 -29.601562 21.765625 -29.34375 C 21.796875 -29.082031 21.8125 -28.820312 21.8125 -28.5625 C 21.863281 -28.144531 21.914062 -27.726562 21.96875 -27.3125 C 22.019531 -26.90625 22.070312 -26.492188 22.125 -26.078125 L 22.359375 -24.609375 C 22.515625 -23.929688 22.65625 -23.242188 22.78125 -22.546875 C 22.914062 -21.847656 23.03125 -21.140625 23.125 -20.421875 L 23.828125 -16.765625 C 23.929688 -16.296875 24.035156 -15.828125 24.140625 -15.359375 C 24.242188 -14.898438 24.320312 -14.4375 24.375 -13.96875 C 24.425781 -13.550781 24.488281 -13.125 24.5625 -12.6875 C 24.644531 -12.25 24.710938 -11.820312 24.765625 -11.40625 C 24.816406 -11.09375 24.84375 -10.796875 24.84375 -10.515625 C 24.84375 -10.234375 24.84375 -9.9375 24.84375 -9.625 C 24.894531 -9.570312 24.921875 -9.492188 24.921875 -9.390625 C 24.921875 -9.285156 24.945312 -9.179688 25 -9.078125 C 25.15625 -8.617188 25.234375 -8.15625 25.234375 -7.6875 C 25.234375 -7.476562 25.242188 -7.28125 25.265625 -7.09375 C 25.296875 -6.914062 25.3125 -6.75 25.3125 -6.59375 C 25.363281 -6.4375 25.398438 -6.28125 25.421875 -6.125 C 25.453125 -5.976562 25.488281 -5.828125 25.53125 -5.671875 L 25.53125 -5.4375 C 25.582031 -5.070312 25.632812 -4.734375 25.6875 -4.421875 C 25.738281 -4.109375 25.789062 -3.773438 25.84375 -3.421875 L 25.84375 -3.109375 C 25.789062 -2.691406 25.789062 -2.265625 25.84375 -1.828125 C 25.894531 -1.390625 25.945312 -0.960938 26 -0.546875 C 26 -0.285156 26.035156 -0.0390625 26.109375 0.1875 C 26.191406 0.425781 26.257812 0.675781 26.3125 0.9375 C 26.3125 1.132812 26.285156 1.285156 26.234375 1.390625 C 26.023438 1.597656 25.867188 1.910156 25.765625 2.328125 C 25.765625 2.378906 25.75 2.429688 25.71875 2.484375 C 25.695312 2.535156 25.6875 2.5625 25.6875 2.5625 C 25.539062 2.769531 25.46875 3.003906 25.46875 3.265625 C 25.363281 3.828125 25.15625 4.265625 24.84375 4.578125 C 24.320312 5.097656 24.0625 5.796875 24.0625 6.671875 L 23.90625 7.296875 C 23.800781 7.660156 23.539062 7.929688 23.125 8.109375 C 22.71875 8.296875 22.359375 8.3125 22.046875 8.15625 Z M 22.046875 8.15625 "/></g></g></g><g fill="#e4e2dd" fill-opacity="1"><g transform="translate(130.48965, 226.166119)"><g><path d="M 4.609375 -2.078125 L 2.296875 -2.078125 L 1.609375 0 L 0.15625 0 L 2.625 -6.875 L 4.359375 -6.875 L 6.78125 0 L 5.296875 0 Z M 3.46875 -5.703125 L 2.65625 -3.15625 L 4.265625 -3.15625 Z M 3.46875 -5.703125 "/></g></g></g><g fill="#e4e2dd" fill-opacity="1"><g transform="translate(137.819831, 226.166119)"><g><path d="M 5.859375 -1.09375 L 5.859375 0 L 0.890625 0 L 0.890625 -6.875 L 5.75 -6.875 L 5.75 -5.796875 L 2.265625 -5.796875 L 2.265625 -3.984375 L 5.5 -3.984375 L 5.5 -2.90625 L 2.265625 -2.90625 L 2.265625 -1.09375 Z M 5.859375 -1.09375 "/></g></g></g><g fill="#e4e2dd" fill-opacity="1"><g transform="translate(144.551657, 226.166119)"><g><path d="M 3.171875 -7.015625 C 3.953125 -7.015625 4.550781 -6.816406 4.96875 -6.421875 C 5.382812 -6.035156 5.632812 -5.515625 5.71875 -4.859375 L 4.3125 -4.859375 C 4.269531 -5.210938 4.148438 -5.488281 3.953125 -5.6875 C 3.753906 -5.882812 3.476562 -5.984375 3.125 -5.984375 C 2.832031 -5.984375 2.597656 -5.914062 2.421875 -5.78125 C 2.242188 -5.644531 2.15625 -5.441406 2.15625 -5.171875 C 2.15625 -4.878906 2.257812 -4.648438 2.46875 -4.484375 C 2.6875 -4.316406 3.070312 -4.171875 3.625 -4.046875 C 4.375 -3.867188 4.925781 -3.601562 5.28125 -3.25 C 5.632812 -2.90625 5.8125 -2.453125 5.8125 -1.890625 C 5.8125 -1.265625 5.566406 -0.769531 5.078125 -0.40625 C 4.585938 -0.0390625 3.984375 0.140625 3.265625 0.140625 C 2.429688 0.140625 1.765625 -0.0390625 1.265625 -0.40625 C 0.765625 -0.78125 0.484375 -1.320312 0.421875 -2.03125 L 1.828125 -2.03125 C 1.898438 -1.664062 2.066406 -1.382812 2.328125 -1.1875 C 2.585938 -0.988281 2.894531 -0.890625 3.25 -0.890625 C 3.570312 -0.890625 3.835938 -0.96875 4.046875 -1.125 C 4.265625 -1.28125 4.375 -1.488281 4.375 -1.75 C 4.375 -2.039062 4.269531 -2.273438 4.0625 -2.453125 C 3.851562 -2.640625 3.5 -2.789062 3 -2.90625 C 2.226562 -3.09375 1.648438 -3.335938 1.265625 -3.640625 C 0.890625 -3.953125 0.703125 -4.40625 0.703125 -5 C 0.703125 -5.613281 0.941406 -6.101562 1.421875 -6.46875 C 1.898438 -6.832031 2.484375 -7.015625 3.171875 -7.015625 Z M 3.171875 -7.015625 "/></g></g></g><g fill="#e4e2dd" fill-opacity="1"><g transform="translate(151.203707, 226.166119)"><g><path d="M 6.265625 -5.796875 L 3.9375 -5.796875 L 3.9375 0 L 2.5625 0 L 2.5625 -5.796875 L 0.234375 -5.796875 L 0.234375 -6.875 L 6.265625 -6.875 Z M 6.265625 -5.796875 "/></g></g></g><g fill="#e4e2dd" fill-opacity="1"><g transform="translate(158.005342, 226.166119)"><g><path d="M 6.84375 -6.875 L 6.84375 0 L 5.484375 0 L 5.484375 -2.828125 L 2.265625 -2.828125 L 2.265625 0 L 0.890625 0 L 0.890625 -6.875 L 2.265625 -6.875 L 2.265625 -3.921875 L 5.484375 -3.921875 L 5.484375 -6.875 Z M 6.84375 -6.875 "/></g></g></g><g fill="#e4e2dd" fill-opacity="1"><g transform="translate(166.093442, 226.166119)"><g><path d="M 5.859375 -1.09375 L 5.859375 0 L 0.890625 0 L 0.890625 -6.875 L 5.75 -6.875 L 5.75 -5.796875 L 2.265625 -5.796875 L 2.265625 -3.984375 L 5.5 -3.984375 L 5.5 -2.90625 L 2.265625 -2.90625 L 2.265625 -1.09375 Z M 5.859375 -1.09375 "/></g></g></g><g fill="#e4e2dd" fill-opacity="1"><g transform="translate(172.825268, 226.166119)"><g><path d="M 6.265625 -5.796875 L 3.9375 -5.796875 L 3.9375 0 L 2.5625 0 L 2.5625 -5.796875 L 0.234375 -5.796875 L 0.234375 -6.875 L 6.265625 -6.875 Z M 6.265625 -5.796875 "/></g></g></g><g fill="#e4e2dd" fill-opacity="1"><g transform="translate(179.626904, 226.166119)"><g><path d="M 2.265625 0 L 0.890625 0 L 0.890625 -6.875 L 2.265625 -6.875 Z M 2.265625 0 "/></g></g></g><g fill="#e4e2dd" fill-opacity="1"><g transform="translate(183.127594, 226.166119)"><g><path d="M 3.84375 -7.015625 C 4.738281 -7.015625 5.4375 -6.796875 5.9375 -6.359375 C 6.445312 -5.929688 6.738281 -5.359375 6.8125 -4.640625 L 6.8125 -4.546875 L 5.4375 -4.546875 L 5.421875 -4.640625 C 5.242188 -5.535156 4.707031 -5.984375 3.8125 -5.984375 C 3.257812 -5.984375 2.8125 -5.757812 2.46875 -5.3125 C 2.132812 -4.863281 1.96875 -4.253906 1.96875 -3.484375 C 1.96875 -2.648438 2.132812 -2.007812 2.46875 -1.5625 C 2.8125 -1.113281 3.253906 -0.890625 3.796875 -0.890625 C 4.234375 -0.890625 4.582031 -1.007812 4.84375 -1.25 C 5.113281 -1.5 5.296875 -1.84375 5.390625 -2.28125 L 5.40625 -2.375 L 6.78125 -2.375 L 6.765625 -2.28125 C 6.691406 -1.539062 6.382812 -0.953125 5.84375 -0.515625 C 5.3125 -0.078125 4.609375 0.140625 3.734375 0.140625 C 2.765625 0.140625 1.984375 -0.175781 1.390625 -0.8125 C 0.804688 -1.457031 0.515625 -2.320312 0.515625 -3.40625 C 0.515625 -4.5 0.820312 -5.375 1.4375 -6.03125 C 2.0625 -6.6875 2.863281 -7.015625 3.84375 -7.015625 Z M 3.84375 -7.015625 "/></g></g></g><g fill="#e4e2dd" fill-opacity="1"><g transform="translate(190.876628, 226.166119)"><g/></g></g><g fill="#e4e2dd" fill-opacity="1"><g transform="translate(193.400005, 226.166119)"><g><path d="M 4.03125 -3.515625 L 6.8125 -3.515625 L 6.8125 0 L 5.703125 0 L 5.609375 -1.109375 L 5.296875 -0.421875 C 4.921875 -0.046875 4.363281 0.140625 3.625 0.140625 C 2.664062 0.140625 1.90625 -0.175781 1.34375 -0.8125 C 0.789062 -1.445312 0.515625 -2.3125 0.515625 -3.40625 C 0.515625 -4.5 0.832031 -5.375 1.46875 -6.03125 C 2.101562 -6.6875 2.910156 -7.015625 3.890625 -7.015625 C 4.796875 -7.015625 5.5 -6.796875 6 -6.359375 C 6.507812 -5.929688 6.800781 -5.359375 6.875 -4.640625 L 6.875 -4.546875 L 5.5 -4.546875 L 5.484375 -4.640625 C 5.304688 -5.535156 4.769531 -5.984375 3.875 -5.984375 C 3.3125 -5.984375 2.851562 -5.757812 2.5 -5.3125 C 2.144531 -4.863281 1.96875 -4.253906 1.96875 -3.484375 C 1.96875 -2.648438 2.140625 -2.007812 2.484375 -1.5625 C 2.828125 -1.113281 3.28125 -0.890625 3.84375 -0.890625 C 4.28125 -0.890625 4.644531 -1.023438 4.9375 -1.296875 C 5.238281 -1.566406 5.425781 -1.945312 5.5 -2.4375 L 4.03125 -2.4375 Z M 4.03125 -3.515625 "/></g></g></g><g fill="#e4e2dd" fill-opacity="1"><g transform="translate(201.338519, 226.166119)"><g><path d="M 4.609375 -2.078125 L 2.296875 -2.078125 L 1.609375 0 L 0.15625 0 L 2.625 -6.875 L 4.359375 -6.875 L 6.78125 0 L 5.296875 0 Z M 3.46875 -5.703125 L 2.65625 -3.15625 L 4.265625 -3.15625 Z M 3.46875 -5.703125 "/></g></g></g><g fill="#e4e2dd" fill-opacity="1"><g transform="translate(208.6687, 226.166119)"><g><path d="M 5.859375 -1.140625 L 5.859375 0 L 0.890625 0 L 0.890625 -6.875 L 2.265625 -6.875 L 2.265625 -1.140625 Z M 5.859375 -1.140625 "/></g></g></g><g fill="#e4e2dd" fill-opacity="1"><g transform="translate(215.280855, 226.166119)"><g><path d="M 5.859375 -1.140625 L 5.859375 0 L 0.890625 0 L 0.890625 -6.875 L 2.265625 -6.875 L 2.265625 -1.140625 Z M 5.859375 -1.140625 "/></g></g></g><g fill="#e4e2dd" fill-opacity="1"><g transform="translate(221.893011, 226.166119)"><g><path d="M 5.859375 -1.09375 L 5.859375 0 L 0.890625 0 L 0.890625 -6.875 L 5.75 -6.875 L 5.75 -5.796875 L 2.265625 -5.796875 L 2.265625 -3.984375 L 5.5 -3.984375 L 5.5 -2.90625 L 2.265625 -2.90625 L 2.265625 -1.09375 Z M 5.859375 -1.09375 "/></g></g></g><g fill="#e4e2dd" fill-opacity="1"><g transform="translate(228.624837, 226.166119)"><g><path d="M 5.875 -1.734375 C 5.957031 -0.921875 6.125 -0.34375 6.375 0 L 4.859375 0 C 4.691406 -0.457031 4.582031 -0.96875 4.53125 -1.53125 C 4.4375 -2.3125 4.125 -2.722656 3.59375 -2.765625 C 3.46875 -2.765625 3.289062 -2.765625 3.0625 -2.765625 L 2.265625 -2.765625 L 2.265625 0 L 0.890625 0 L 0.890625 -6.875 L 3.40625 -6.875 C 3.78125 -6.875 4.109375 -6.859375 4.390625 -6.828125 C 4.941406 -6.765625 5.378906 -6.582031 5.703125 -6.28125 C 6.035156 -5.988281 6.203125 -5.5625 6.203125 -5 C 6.203125 -4.570312 6.082031 -4.21875 5.84375 -3.9375 C 5.601562 -3.65625 5.273438 -3.453125 4.859375 -3.328125 C 5.441406 -3.097656 5.78125 -2.566406 5.875 -1.734375 Z M 2.265625 -3.796875 L 3.203125 -3.796875 C 3.484375 -3.796875 3.671875 -3.800781 3.765625 -3.8125 C 4.421875 -3.863281 4.75 -4.191406 4.75 -4.796875 C 4.75 -5.109375 4.671875 -5.335938 4.515625 -5.484375 C 4.359375 -5.640625 4.132812 -5.734375 3.84375 -5.765625 C 3.6875 -5.785156 3.492188 -5.796875 3.265625 -5.796875 L 2.265625 -5.796875 Z M 2.265625 -3.796875 "/></g></g></g><g fill="#e4e2dd" fill-opacity="1"><g transform="translate(235.735623, 226.166119)"><g><path d="M 3.953125 -2.65625 L 3.953125 0 L 2.59375 0 L 2.59375 -2.65625 L 0.15625 -6.875 L 1.71875 -6.875 L 3.3125 -3.875 L 4.875 -6.875 L 6.390625 -6.875 Z M 3.953125 -2.65625 "/></g></g></g><g fill="#e4e2dd" fill-opacity="1"><g transform="translate(242.567768, 226.166119)"><g/></g></g><g fill="#e4e2dd" fill-opacity="1"><g transform="translate(178.585476, 241.321675)"><g><path d="M 4.078125 -0.84375 L 4.078125 0 L 0.578125 0 L 0.578125 -4.71875 L 4.015625 -4.71875 L 4.015625 -3.875 L 1.65625 -3.875 L 1.65625 -2.78125 L 3.84375 -2.78125 L 3.84375 -1.953125 L 1.65625 -1.953125 L 1.65625 -0.84375 Z M 4.078125 -0.84375 "/></g></g></g><g fill="#e4e2dd" fill-opacity="1"><g transform="translate(182.864579, 241.321675)"><g><path d="M 2.1875 -4.8125 C 2.570312 -4.8125 2.890625 -4.742188 3.140625 -4.609375 C 3.398438 -4.472656 3.597656 -4.289062 3.734375 -4.0625 C 3.867188 -3.84375 3.953125 -3.585938 3.984375 -3.296875 L 2.90625 -3.296875 C 2.875 -3.515625 2.796875 -3.6875 2.671875 -3.8125 C 2.554688 -3.945312 2.382812 -4.015625 2.15625 -4.015625 C 1.976562 -4.015625 1.835938 -3.972656 1.734375 -3.890625 C 1.628906 -3.816406 1.578125 -3.691406 1.578125 -3.515625 C 1.578125 -3.335938 1.644531 -3.191406 1.78125 -3.078125 C 1.925781 -2.972656 2.191406 -2.878906 2.578125 -2.796875 C 3.097656 -2.671875 3.472656 -2.484375 3.703125 -2.234375 C 3.941406 -1.992188 4.0625 -1.6875 4.0625 -1.3125 C 4.0625 -1.007812 3.976562 -0.75 3.8125 -0.53125 C 3.644531 -0.320312 3.421875 -0.164062 3.140625 -0.0625 C 2.867188 0.0390625 2.578125 0.09375 2.265625 0.09375 C 1.691406 0.09375 1.222656 -0.03125 0.859375 -0.28125 C 0.503906 -0.53125 0.304688 -0.90625 0.265625 -1.40625 L 1.34375 -1.40625 C 1.394531 -1.164062 1.503906 -0.988281 1.671875 -0.875 C 1.835938 -0.757812 2.03125 -0.703125 2.25 -0.703125 C 2.445312 -0.703125 2.609375 -0.75 2.734375 -0.84375 C 2.867188 -0.9375 2.9375 -1.0625 2.9375 -1.21875 C 2.9375 -1.382812 2.875 -1.523438 2.75 -1.640625 C 2.625 -1.753906 2.398438 -1.847656 2.078125 -1.921875 C 1.742188 -2.015625 1.453125 -2.113281 1.203125 -2.21875 C 0.960938 -2.332031 0.773438 -2.484375 0.640625 -2.671875 C 0.515625 -2.867188 0.453125 -3.113281 0.453125 -3.40625 C 0.453125 -3.707031 0.53125 -3.960938 0.6875 -4.171875 C 0.851562 -4.378906 1.066406 -4.535156 1.328125 -4.640625 C 1.597656 -4.753906 1.882812 -4.8125 2.1875 -4.8125 Z M 2.1875 -4.8125 "/></g></g></g><g fill="#e4e2dd" fill-opacity="1"><g transform="translate(187.07533, 241.321675)"><g><path d="M 4.328125 -3.875 L 2.765625 -3.875 L 2.765625 0 L 1.703125 0 L 1.703125 -3.875 L 0.125 -3.875 L 0.125 -4.71875 L 4.328125 -4.71875 Z M 4.328125 -3.875 "/></g></g></g><g fill="#e4e2dd" fill-opacity="1"><g transform="translate(191.361265, 241.321675)"><g><path d="M 2.875 -4.6875 C 3.238281 -4.644531 3.566406 -4.535156 3.859375 -4.359375 C 4.160156 -4.191406 4.398438 -3.945312 4.578125 -3.625 C 4.753906 -3.300781 4.84375 -2.898438 4.84375 -2.421875 C 4.84375 -1.929688 4.753906 -1.515625 4.578125 -1.171875 C 4.398438 -0.835938 4.160156 -0.570312 3.859375 -0.375 C 3.554688 -0.1875 3.226562 -0.0703125 2.875 -0.03125 C 2.75 -0.0078125 2.644531 0 2.5625 0 C 2.488281 0 2.390625 0 2.265625 0 L 0.578125 0 L 0.578125 -4.71875 L 2.28125 -4.71875 C 2.40625 -4.71875 2.503906 -4.710938 2.578125 -4.703125 C 2.660156 -4.703125 2.757812 -4.695312 2.875 -4.6875 Z M 2.609375 -0.859375 C 2.941406 -0.890625 3.207031 -1.039062 3.40625 -1.3125 C 3.613281 -1.582031 3.71875 -1.945312 3.71875 -2.40625 C 3.71875 -2.851562 3.613281 -3.195312 3.40625 -3.4375 C 3.207031 -3.675781 2.941406 -3.816406 2.609375 -3.859375 C 2.535156 -3.867188 2.460938 -3.875 2.390625 -3.875 C 2.316406 -3.875 2.234375 -3.875 2.140625 -3.875 L 1.65625 -3.875 L 1.65625 -0.84375 L 2.125 -0.84375 C 2.226562 -0.84375 2.316406 -0.84375 2.390625 -0.84375 C 2.460938 -0.84375 2.535156 -0.847656 2.609375 -0.859375 Z M 2.609375 -0.859375 "/></g></g></g><g fill="#e4e2dd" fill-opacity="1"><g transform="translate(178.718983, 248.726886)"><g><path d="M 2.0625 -0.84375 L 3.9375 -0.84375 L 3.9375 0 L 0.40625 0 L 0.40625 -0.484375 L 1.9375 -1.96875 C 2.164062 -2.175781 2.34375 -2.359375 2.46875 -2.515625 C 2.601562 -2.671875 2.695312 -2.816406 2.75 -2.953125 C 2.8125 -3.085938 2.84375 -3.234375 2.84375 -3.390625 C 2.84375 -3.585938 2.789062 -3.742188 2.6875 -3.859375 C 2.582031 -3.972656 2.429688 -4.03125 2.234375 -4.03125 C 1.835938 -4.03125 1.613281 -3.765625 1.5625 -3.234375 L 1.5625 -3.15625 L 0.484375 -3.15625 L 0.484375 -3.234375 C 0.535156 -3.742188 0.71875 -4.132812 1.03125 -4.40625 C 1.351562 -4.6875 1.785156 -4.828125 2.328125 -4.828125 C 2.867188 -4.828125 3.273438 -4.695312 3.546875 -4.4375 C 3.828125 -4.1875 3.96875 -3.851562 3.96875 -3.4375 C 3.96875 -3.25 3.929688 -3.066406 3.859375 -2.890625 C 3.796875 -2.710938 3.679688 -2.519531 3.515625 -2.3125 C 3.347656 -2.113281 3.113281 -1.867188 2.8125 -1.578125 Z M 2.0625 -0.84375 "/></g></g></g><g fill="#e4e2dd" fill-opacity="1"><g transform="translate(183.107457, 248.726886)"><g><path d="M 2.1875 -4.8125 C 2.644531 -4.8125 3.007812 -4.710938 3.28125 -4.515625 C 3.550781 -4.316406 3.75 -4.035156 3.875 -3.671875 C 4.007812 -3.304688 4.078125 -2.867188 4.078125 -2.359375 C 4.078125 -1.847656 4.007812 -1.410156 3.875 -1.046875 C 3.75 -0.679688 3.550781 -0.398438 3.28125 -0.203125 C 3.007812 -0.00390625 2.644531 0.09375 2.1875 0.09375 C 1.738281 0.09375 1.375 -0.00390625 1.09375 -0.203125 C 0.820312 -0.398438 0.625 -0.679688 0.5 -1.046875 C 0.375 -1.410156 0.3125 -1.847656 0.3125 -2.359375 C 0.3125 -2.867188 0.375 -3.304688 0.5 -3.671875 C 0.625 -4.035156 0.820312 -4.316406 1.09375 -4.515625 C 1.375 -4.710938 1.738281 -4.8125 2.1875 -4.8125 Z M 2.1875 -0.703125 C 2.445312 -0.703125 2.640625 -0.828125 2.765625 -1.078125 C 2.890625 -1.335938 2.953125 -1.765625 2.953125 -2.359375 C 2.953125 -2.953125 2.890625 -3.375 2.765625 -3.625 C 2.640625 -3.882812 2.445312 -4.015625 2.1875 -4.015625 C 1.9375 -4.015625 1.75 -3.882812 1.625 -3.625 C 1.5 -3.375 1.4375 -2.953125 1.4375 -2.359375 C 1.4375 -1.765625 1.5 -1.335938 1.625 -1.078125 C 1.75 -0.828125 1.9375 -0.703125 2.1875 -0.703125 Z M 2.1875 -0.703125 "/></g></g></g><g fill="#e4e2dd" fill-opacity="1"><g transform="translate(187.49593, 248.726886)"><g><path d="M 2.0625 -0.84375 L 3.9375 -0.84375 L 3.9375 0 L 0.40625 0 L 0.40625 -0.484375 L 1.9375 -1.96875 C 2.164062 -2.175781 2.34375 -2.359375 2.46875 -2.515625 C 2.601562 -2.671875 2.695312 -2.816406 2.75 -2.953125 C 2.8125 -3.085938 2.84375 -3.234375 2.84375 -3.390625 C 2.84375 -3.585938 2.789062 -3.742188 2.6875 -3.859375 C 2.582031 -3.972656 2.429688 -4.03125 2.234375 -4.03125 C 1.835938 -4.03125 1.613281 -3.765625 1.5625 -3.234375 L 1.5625 -3.15625 L 0.484375 -3.15625 L 0.484375 -3.234375 C 0.535156 -3.742188 0.71875 -4.132812 1.03125 -4.40625 C 1.351562 -4.6875 1.785156 -4.828125 2.328125 -4.828125 C 2.867188 -4.828125 3.273438 -4.695312 3.546875 -4.4375 C 3.828125 -4.1875 3.96875 -3.851562 3.96875 -3.4375 C 3.96875 -3.25 3.929688 -3.066406 3.859375 -2.890625 C 3.796875 -2.710938 3.679688 -2.519531 3.515625 -2.3125 C 3.347656 -2.113281 3.113281 -1.867188 2.8125 -1.578125 Z M 2.0625 -0.84375 "/></g></g></g><g fill="#e4e2dd" fill-opacity="1"><g transform="translate(191.884404, 248.726886)"><g><path d="M 2.46875 -3.1875 C 2.957031 -3.1875 3.335938 -3.039062 3.609375 -2.75 C 3.890625 -2.46875 4.03125 -2.078125 4.03125 -1.578125 C 4.03125 -1.210938 3.941406 -0.90625 3.765625 -0.65625 C 3.597656 -0.40625 3.375 -0.21875 3.09375 -0.09375 C 2.8125 0.03125 2.515625 0.09375 2.203125 0.09375 C 1.660156 0.09375 1.234375 -0.015625 0.921875 -0.234375 C 0.617188 -0.460938 0.441406 -0.816406 0.390625 -1.296875 L 0.390625 -1.375 L 1.46875 -1.375 L 1.46875 -1.296875 C 1.5 -1.117188 1.566406 -0.972656 1.671875 -0.859375 C 1.785156 -0.753906 1.941406 -0.703125 2.140625 -0.703125 C 2.390625 -0.703125 2.578125 -0.78125 2.703125 -0.9375 C 2.835938 -1.09375 2.90625 -1.296875 2.90625 -1.546875 C 2.90625 -1.796875 2.835938 -2 2.703125 -2.15625 C 2.578125 -2.3125 2.394531 -2.390625 2.15625 -2.390625 C 1.976562 -2.390625 1.832031 -2.351562 1.71875 -2.28125 C 1.613281 -2.207031 1.53125 -2.082031 1.46875 -1.90625 L 0.46875 -1.90625 L 0.8125 -4.71875 L 3.84375 -4.71875 L 3.84375 -3.875 L 1.6875 -3.875 L 1.515625 -2.6875 L 1.734375 -3 C 1.835938 -3.0625 1.953125 -3.109375 2.078125 -3.140625 C 2.203125 -3.171875 2.332031 -3.1875 2.46875 -3.1875 Z M 2.46875 -3.1875 "/></g></g></g></svg>