<svg xmlns="http://www.w3.org/2000/svg" xmlns:xlink="http://www.w3.org/1999/xlink" width="500" zoomAndPan="magnify" viewBox="0 0 375 374.999991" height="500" preserveAspectRatio="xMidYMid meet" version="1.0"><defs><g/></defs><g fill="#e4e2dd" fill-opacity="1"><g transform="translate(71.838812, 219.374986)"><g><path d="M 7.5 9 C 7.4375 9 7.203125 8.929688 6.796875 8.796875 C 6.597656 8.734375 6.363281 8.5 6.09375 8.09375 C 6.03125 7.894531 5.960938 7.695312 5.890625 7.5 C 5.828125 7.300781 5.796875 7.101562 5.796875 6.90625 C 5.597656 5.90625 5.5 4.90625 5.5 3.90625 L 5.5 -3 C 5.5 -3.601562 5.429688 -4.203125 5.296875 -4.796875 C 5.160156 -5.398438 5.03125 -6 4.90625 -6.59375 C 4.90625 -6.726562 4.835938 -6.929688 4.703125 -7.203125 C 4.628906 -7.398438 4.523438 -7.613281 4.390625 -7.84375 C 4.265625 -8.082031 4.132812 -8.300781 4 -8.5 C 3.726562 -8.96875 3.523438 -9.46875 3.390625 -10 C 3.265625 -10.53125 3.164062 -11.03125 3.09375 -11.5 C 3.03125 -12.226562 3.03125 -12.925781 3.09375 -13.59375 C 3.226562 -14 3.328125 -14.382812 3.390625 -14.75 C 3.460938 -15.113281 3.566406 -15.460938 3.703125 -15.796875 C 3.898438 -16.328125 4.066406 -16.875 4.203125 -17.4375 C 4.335938 -18.007812 4.503906 -18.597656 4.703125 -19.203125 L 6.203125 -24.09375 C 6.671875 -25.5 7.269531 -26.9375 8 -28.40625 C 8.726562 -29.800781 9.425781 -31.363281 10.09375 -33.09375 C 10.226562 -33.5 10.394531 -33.9375 10.59375 -34.40625 C 10.863281 -35.132812 11.148438 -35.847656 11.453125 -36.546875 C 11.753906 -37.242188 12.035156 -37.925781 12.296875 -38.59375 L 13.796875 -42.796875 C 13.929688 -43.066406 14.03125 -43.332031 14.09375 -43.59375 C 14.164062 -43.863281 14.234375 -44.132812 14.296875 -44.40625 C 14.828125 -45.738281 15.363281 -47.003906 15.90625 -48.203125 C 16.300781 -49.003906 16.566406 -49.867188 16.703125 -50.796875 C 16.835938 -51.734375 16.835938 -52.664062 16.703125 -53.59375 C 16.628906 -54 16.578125 -54.414062 16.546875 -54.84375 C 16.515625 -55.28125 16.5 -55.695312 16.5 -56.09375 C 16.5 -56.300781 16.445312 -56.488281 16.34375 -56.65625 C 16.25 -56.820312 16.234375 -57.003906 16.296875 -57.203125 C 16.367188 -57.335938 16.453125 -57.46875 16.546875 -57.59375 C 16.648438 -57.726562 16.734375 -57.863281 16.796875 -58 C 16.992188 -58.726562 17.3125 -59.375 17.75 -59.9375 C 18.1875 -60.507812 18.671875 -61.03125 19.203125 -61.5 C 19.460938 -61.769531 19.828125 -61.96875 20.296875 -62.09375 C 20.566406 -62.226562 20.816406 -62.363281 21.046875 -62.5 C 21.285156 -62.632812 21.503906 -62.800781 21.703125 -63 C 22.035156 -63.269531 22.398438 -63.4375 22.796875 -63.5 C 23.328125 -63.5625 23.894531 -63.757812 24.5 -64.09375 C 25.03125 -64.425781 25.628906 -64.53125 26.296875 -64.40625 L 27.203125 -64.40625 C 27.671875 -64.40625 28.171875 -64.238281 28.703125 -63.90625 C 28.835938 -63.832031 28.988281 -63.742188 29.15625 -63.640625 C 29.320312 -63.546875 29.503906 -63.429688 29.703125 -63.296875 C 30.234375 -62.898438 30.5 -62.398438 30.5 -61.796875 C 30.5 -61.328125 30.546875 -60.894531 30.640625 -60.5 C 30.742188 -60.101562 30.832031 -59.671875 30.90625 -59.203125 C 31.03125 -58.796875 31.03125 -58.363281 30.90625 -57.90625 C 30.832031 -57.769531 30.796875 -57.617188 30.796875 -57.453125 C 30.796875 -57.285156 30.765625 -57.132812 30.703125 -57 C 30.703125 -56.726562 30.679688 -56.457031 30.640625 -56.1875 C 30.609375 -55.925781 30.5625 -55.664062 30.5 -55.40625 C 30.300781 -54.9375 30.367188 -54.46875 30.703125 -54 C 31.234375 -53.132812 31.710938 -52.234375 32.140625 -51.296875 C 32.578125 -50.367188 33.03125 -49.4375 33.5 -48.5 L 35.296875 -45.296875 C 35.828125 -44.429688 36.363281 -43.398438 36.90625 -42.203125 C 37.03125 -42.003906 37.144531 -41.800781 37.25 -41.59375 C 37.351562 -41.394531 37.46875 -41.195312 37.59375 -41 C 37.800781 -40.664062 37.988281 -40.296875 38.15625 -39.890625 C 38.320312 -39.492188 38.503906 -39.097656 38.703125 -38.703125 C 39.234375 -37.703125 39.679688 -36.679688 40.046875 -35.640625 C 40.410156 -34.609375 40.796875 -33.53125 41.203125 -32.40625 C 41.203125 -32.332031 41.21875 -32.28125 41.25 -32.25 C 41.28125 -32.21875 41.296875 -32.164062 41.296875 -32.09375 C 41.367188 -31.632812 41.703125 -31.40625 42.296875 -31.40625 C 42.492188 -31.46875 42.707031 -31.5 42.9375 -31.5 C 43.175781 -31.5 43.394531 -31.5 43.59375 -31.5 C 44.332031 -31.5 44.96875 -31.363281 45.5 -31.09375 C 45.832031 -31.03125 46.164062 -30.832031 46.5 -30.5 C 47.03125 -29.96875 47.394531 -29.535156 47.59375 -29.203125 C 47.800781 -28.867188 47.9375 -28.367188 48 -27.703125 C 48.269531 -26.429688 48.003906 -25.332031 47.203125 -24.40625 L 46.59375 -23.90625 C 46.46875 -23.769531 46.300781 -23.648438 46.09375 -23.546875 C 45.894531 -23.453125 45.726562 -23.335938 45.59375 -23.203125 C 45.257812 -22.929688 45.078125 -22.726562 45.046875 -22.59375 C 45.015625 -22.46875 45.097656 -22.171875 45.296875 -21.703125 L 46.796875 -18.09375 C 47.398438 -16.757812 48.015625 -15.425781 48.640625 -14.09375 C 49.273438 -12.757812 49.925781 -11.425781 50.59375 -10.09375 C 50.863281 -9.632812 51.082031 -9.171875 51.25 -8.703125 C 51.414062 -8.234375 51.53125 -7.734375 51.59375 -7.203125 C 51.664062 -6.796875 51.679688 -6.394531 51.640625 -6 C 51.609375 -5.601562 51.5625 -5.203125 51.5 -4.796875 C 51.5 -4.734375 51.429688 -4.5 51.296875 -4.09375 C 51.097656 -3.832031 50.914062 -3.566406 50.75 -3.296875 C 50.582031 -3.035156 50.398438 -2.769531 50.203125 -2.5 C 49.671875 -1.769531 49.238281 -0.9375 48.90625 0 C 48.769531 0.601562 48.332031 1.070312 47.59375 1.40625 C 47.195312 1.601562 46.765625 1.601562 46.296875 1.40625 C 45.703125 1.195312 45.300781 0.796875 45.09375 0.203125 L 44.90625 -0.296875 C 44.695312 -0.960938 44.394531 -1.597656 44 -2.203125 C 43.726562 -2.671875 43.476562 -3.15625 43.25 -3.65625 C 43.019531 -4.15625 42.769531 -4.632812 42.5 -5.09375 C 42.4375 -5.226562 42.40625 -5.34375 42.40625 -5.4375 C 42.40625 -5.539062 42.367188 -5.628906 42.296875 -5.703125 C 42.234375 -6.097656 42.117188 -6.476562 41.953125 -6.84375 C 41.785156 -7.21875 41.601562 -7.570312 41.40625 -7.90625 C 41 -8.90625 40.578125 -9.882812 40.140625 -10.84375 C 39.710938 -11.8125 39.265625 -12.796875 38.796875 -13.796875 L 37.296875 -17 C 37.234375 -17.195312 37.164062 -17.410156 37.09375 -17.640625 C 37.03125 -17.878906 36.929688 -18.132812 36.796875 -18.40625 L 35.59375 -21.09375 C 35.59375 -21.226562 35.53125 -21.429688 35.40625 -21.703125 C 35.070312 -22.234375 34.632812 -22.53125 34.09375 -22.59375 C 33.632812 -22.59375 33.203125 -22.625 32.796875 -22.6875 C 32.398438 -22.757812 32 -22.796875 31.59375 -22.796875 C 30.53125 -22.796875 29.460938 -22.695312 28.390625 -22.5 C 27.328125 -22.300781 26.332031 -21.9375 25.40625 -21.40625 C 24.132812 -20.664062 22.832031 -20.195312 21.5 -20 C 21.226562 -20 20.957031 -19.960938 20.6875 -19.890625 C 20.425781 -19.828125 20.164062 -19.726562 19.90625 -19.59375 C 19.5 -19.332031 19.265625 -19.035156 19.203125 -18.703125 C 19.066406 -18.296875 19 -17.992188 19 -17.796875 L 18.703125 -16.40625 C 18.628906 -15.9375 18.363281 -15.46875 17.90625 -15 C 17.570312 -14.664062 17.101562 -14.5 16.5 -14.5 C 15.632812 -14.632812 15.066406 -15.066406 14.796875 -15.796875 C 14.734375 -15.992188 14.664062 -16.191406 14.59375 -16.390625 C 14.53125 -16.597656 14.46875 -16.832031 14.40625 -17.09375 C 14.132812 -16.695312 14.097656 -16.363281 14.296875 -16.09375 C 14.429688 -15.832031 14.363281 -15.601562 14.09375 -15.40625 C 13.96875 -15.269531 13.9375 -15.164062 14 -15.09375 C 14.132812 -14.832031 14.097656 -14.597656 13.890625 -14.390625 C 13.691406 -14.191406 13.628906 -13.960938 13.703125 -13.703125 C 13.765625 -13.566406 13.765625 -13.398438 13.703125 -13.203125 C 13.367188 -12.734375 13.132812 -12.164062 13 -11.5 C 13.0625 -11.226562 12.894531 -11.03125 12.5 -10.90625 C 12.363281 -10.90625 12.296875 -10.835938 12.296875 -10.703125 C 12.160156 -10.503906 12.03125 -10.203125 11.90625 -9.796875 C 11.832031 -9.460938 11.742188 -9.113281 11.640625 -8.75 C 11.546875 -8.382812 11.429688 -8.035156 11.296875 -7.703125 L 10.703125 -5.203125 L 10.703125 -4.796875 C 10.703125 -4.203125 10.648438 -3.617188 10.546875 -3.046875 C 10.453125 -2.484375 10.40625 -1.898438 10.40625 -1.296875 L 10.09375 2 C 10.03125 2.46875 9.984375 2.953125 9.953125 3.453125 C 9.921875 3.953125 9.90625 4.46875 9.90625 5 C 9.832031 5.394531 9.78125 5.773438 9.75 6.140625 C 9.71875 6.515625 9.632812 6.898438 9.5 7.296875 C 9.363281 7.898438 9.128906 8.332031 8.796875 8.59375 C 8.535156 9 8.101562 9.132812 7.5 9 Z M 20.5 -31.5 L 20.59375 -31.5 C 21.257812 -31.632812 21.894531 -31.734375 22.5 -31.796875 C 23.101562 -31.867188 23.703125 -31.9375 24.296875 -32 C 24.703125 -32.0625 25.101562 -32.109375 25.5 -32.140625 C 25.894531 -32.179688 26.296875 -32.203125 26.703125 -32.203125 L 28.796875 -32.203125 C 28.929688 -32.203125 29.066406 -32.21875 29.203125 -32.25 C 29.335938 -32.28125 29.4375 -32.296875 29.5 -32.296875 C 29.632812 -32.296875 29.703125 -32.429688 29.703125 -32.703125 C 29.503906 -32.960938 29.335938 -33.226562 29.203125 -33.5 C 29.066406 -33.769531 28.929688 -34.035156 28.796875 -34.296875 C 28.398438 -35.234375 27.867188 -36.035156 27.203125 -36.703125 C 27.128906 -36.835938 27.0625 -36.953125 27 -37.046875 C 26.9375 -37.148438 26.867188 -37.269531 26.796875 -37.40625 C 26.734375 -37.53125 26.648438 -37.675781 26.546875 -37.84375 C 26.453125 -38.007812 26.335938 -38.160156 26.203125 -38.296875 C 25.867188 -38.566406 25.535156 -38.5 25.203125 -38.09375 L 24.90625 -37.296875 C 24.832031 -36.765625 24.726562 -36.210938 24.59375 -35.640625 C 24.46875 -35.078125 24.335938 -34.53125 24.203125 -34 C 24.203125 -33.863281 24.132812 -33.664062 24 -33.40625 C 23.863281 -33 23.546875 -32.695312 23.046875 -32.5 C 22.546875 -32.300781 22.03125 -32.367188 21.5 -32.703125 L 20.90625 -33.09375 C 20.90625 -33.09375 20.835938 -33.09375 20.703125 -33.09375 C 20.566406 -32.832031 20.5 -32.632812 20.5 -32.5 C 20.5 -32.363281 20.515625 -32.226562 20.546875 -32.09375 C 20.578125 -31.96875 20.53125 -31.835938 20.40625 -31.703125 C 20.269531 -31.566406 20.300781 -31.5 20.5 -31.5 Z M 20.5 -31.5 "/></g></g></g><g fill="#e4e2dd" fill-opacity="1"><g transform="translate(115.636733, 219.374986)"><g><path d="M 52 37.703125 L 50.703125 36.5 C 50.566406 36.363281 50.5 36.226562 50.5 36.09375 L 50.203125 35.09375 C 50.203125 34.5625 50.101562 34 49.90625 33.40625 C 49.832031 33.269531 49.796875 33.097656 49.796875 32.890625 C 49.796875 32.691406 49.765625 32.53125 49.703125 32.40625 C 49.703125 31.863281 49.664062 31.34375 49.59375 30.84375 C 49.53125 30.34375 49.429688 29.863281 49.296875 29.40625 L 49.296875 29 C 49.234375 28.0625 49.132812 27.109375 49 26.140625 C 48.863281 25.179688 48.796875 24.234375 48.796875 23.296875 L 48.796875 21.90625 C 48.796875 21.695312 48.8125 21.492188 48.84375 21.296875 C 48.882812 21.097656 48.867188 20.863281 48.796875 20.59375 C 48.796875 20.195312 48.78125 19.75 48.75 19.25 C 48.71875 18.75 48.703125 18.265625 48.703125 17.796875 C 48.703125 17.460938 48.703125 17.09375 48.703125 16.6875 C 48.703125 16.289062 48.664062 15.925781 48.59375 15.59375 C 48.53125 14.925781 48.460938 14.257812 48.390625 13.59375 C 48.328125 12.925781 48.265625 12.257812 48.203125 11.59375 C 48.128906 10.925781 48.078125 10.257812 48.046875 9.59375 C 48.015625 8.925781 48 8.257812 48 7.59375 C 47.863281 7.0625 47.757812 6.5625 47.6875 6.09375 C 47.625 5.632812 47.53125 5.171875 47.40625 4.703125 C 47.269531 4.097656 47.035156 3.628906 46.703125 3.296875 C 46.429688 2.960938 46.175781 2.644531 45.9375 2.34375 C 45.707031 2.050781 45.53125 1.738281 45.40625 1.40625 C 45.269531 1.132812 45.132812 0.929688 45 0.796875 C 44.664062 0.460938 44.347656 0.0820312 44.046875 -0.34375 C 43.742188 -0.78125 43.425781 -1.195312 43.09375 -1.59375 C 42.757812 -2.195312 42.394531 -2.734375 42 -3.203125 C 41.800781 -3.535156 41.582031 -3.847656 41.34375 -4.140625 C 41.113281 -4.441406 40.929688 -4.726562 40.796875 -5 C 40.660156 -5.332031 40.476562 -5.613281 40.25 -5.84375 C 40.019531 -6.082031 39.800781 -6.300781 39.59375 -6.5 L 35.796875 -10.703125 C 35.203125 -11.367188 34.632812 -12.035156 34.09375 -12.703125 C 33.96875 -13.035156 33.800781 -13.300781 33.59375 -13.5 C 33.394531 -13.695312 33.164062 -13.929688 32.90625 -14.203125 L 30.5 -16.703125 C 30.300781 -16.960938 30.082031 -17.175781 29.84375 -17.34375 C 29.613281 -17.507812 29.363281 -17.660156 29.09375 -17.796875 C 28.5625 -18.066406 28.03125 -18.46875 27.5 -19 C 27.5 -19.0625 27.429688 -19.160156 27.296875 -19.296875 C 26.898438 -19.566406 26.515625 -19.867188 26.140625 -20.203125 C 25.773438 -20.535156 25.425781 -20.867188 25.09375 -21.203125 C 24.695312 -21.597656 24.398438 -21.863281 24.203125 -22 C 23.671875 -22.53125 23.117188 -23.03125 22.546875 -23.5 C 21.984375 -23.96875 21.4375 -24.46875 20.90625 -25 C 20.632812 -25.269531 20.378906 -25.519531 20.140625 -25.75 C 19.910156 -25.976562 19.695312 -26.226562 19.5 -26.5 L 18.90625 -27.09375 C 18.90625 -27.09375 18.882812 -27.09375 18.84375 -27.09375 C 18.8125 -27.09375 18.796875 -27.0625 18.796875 -27 L 18.703125 -26.90625 L 18.703125 -26.796875 C 19.035156 -25.460938 19.269531 -24 19.40625 -22.40625 C 19.40625 -22.195312 19.4375 -22.0625 19.5 -22 C 19.695312 -21.332031 19.78125 -20.679688 19.75 -20.046875 C 19.71875 -19.410156 19.632812 -18.757812 19.5 -18.09375 C 19.363281 -17.5625 19.460938 -17.128906 19.796875 -16.796875 C 19.929688 -16.660156 19.929688 -16.53125 19.796875 -16.40625 C 19.796875 -16.070312 19.796875 -15.90625 19.796875 -15.90625 C 19.867188 -15.570312 19.90625 -15.238281 19.90625 -14.90625 C 19.90625 -14.570312 19.90625 -14.238281 19.90625 -13.90625 C 19.90625 -13.4375 19.9375 -13.101562 20 -12.90625 C 20.195312 -11.90625 20.265625 -10.96875 20.203125 -10.09375 C 20.128906 -9.832031 20.09375 -9.535156 20.09375 -9.203125 C 20.09375 -8.867188 20.0625 -8.535156 20 -8.203125 C 19.9375 -8.003906 19.921875 -7.820312 19.953125 -7.65625 C 19.984375 -7.488281 20 -7.335938 20 -7.203125 C 20.0625 -6.929688 20.109375 -6.675781 20.140625 -6.4375 C 20.179688 -6.207031 20.164062 -5.960938 20.09375 -5.703125 C 20.09375 -5.097656 19.960938 -4.5625 19.703125 -4.09375 C 19.296875 -3.425781 18.757812 -3.03125 18.09375 -2.90625 C 17.894531 -2.90625 17.765625 -2.867188 17.703125 -2.796875 C 17.367188 -2.660156 17.203125 -2.492188 17.203125 -2.296875 C 17.203125 -1.960938 17.179688 -1.644531 17.140625 -1.34375 C 17.109375 -1.050781 17.09375 -0.738281 17.09375 -0.40625 L 17.09375 2.203125 C 17.164062 2.796875 17.035156 3.394531 16.703125 4 C 16.503906 4.332031 16.238281 4.566406 15.90625 4.703125 C 15.570312 4.835938 15.238281 4.867188 14.90625 4.796875 C 13.96875 4.460938 13.363281 3.863281 13.09375 3 L 12.796875 1.796875 C 12.734375 1.328125 12.617188 0.875 12.453125 0.4375 C 12.285156 0.0078125 12.035156 -0.398438 11.703125 -0.796875 C 11.566406 -1.066406 11.429688 -1.332031 11.296875 -1.59375 C 11.160156 -1.863281 11.03125 -2.132812 10.90625 -2.40625 C 10.632812 -3 10.414062 -3.613281 10.25 -4.25 C 10.082031 -4.882812 9.929688 -5.535156 9.796875 -6.203125 C 9.734375 -6.597656 9.703125 -6.976562 9.703125 -7.34375 C 9.703125 -7.71875 9.703125 -8.101562 9.703125 -8.5 C 9.703125 -8.769531 9.679688 -9.035156 9.640625 -9.296875 C 9.609375 -9.566406 9.59375 -9.832031 9.59375 -10.09375 C 9.53125 -10.5625 9.5 -11.03125 9.5 -11.5 C 9.5 -11.96875 9.5 -12.4375 9.5 -12.90625 C 9.5 -13.238281 9.5 -13.601562 9.5 -14 C 9.5 -14.394531 9.429688 -14.757812 9.296875 -15.09375 L 9.296875 -15.5 C 9.296875 -16.164062 9.257812 -16.796875 9.1875 -17.390625 C 9.125 -17.992188 9.0625 -18.628906 9 -19.296875 C 9 -19.429688 8.96875 -19.53125 8.90625 -19.59375 C 8.832031 -20 8.757812 -20.414062 8.6875 -20.84375 C 8.625 -21.28125 8.53125 -21.695312 8.40625 -22.09375 C 8.269531 -22.632812 8.148438 -23.171875 8.046875 -23.703125 C 7.953125 -24.234375 7.835938 -24.765625 7.703125 -25.296875 C 7.628906 -25.765625 7.5625 -26.210938 7.5 -26.640625 C 7.4375 -27.078125 7.335938 -27.53125 7.203125 -28 C 7.128906 -28.269531 7.078125 -28.519531 7.046875 -28.75 C 7.015625 -28.976562 7 -29.226562 7 -29.5 C 6.9375 -29.894531 6.882812 -30.273438 6.84375 -30.640625 C 6.8125 -31.015625 6.796875 -31.367188 6.796875 -31.703125 C 6.734375 -32.234375 6.664062 -32.78125 6.59375 -33.34375 C 6.53125 -33.914062 6.429688 -34.46875 6.296875 -35 C 6.234375 -35.332031 6.179688 -35.679688 6.140625 -36.046875 C 6.109375 -36.410156 6.09375 -36.757812 6.09375 -37.09375 C 6.03125 -37.96875 5.945312 -38.800781 5.84375 -39.59375 C 5.75 -40.394531 5.703125 -41.226562 5.703125 -42.09375 C 5.703125 -42.425781 5.679688 -42.742188 5.640625 -43.046875 C 5.609375 -43.347656 5.59375 -43.632812 5.59375 -43.90625 C 5.53125 -44.5 5.445312 -45.113281 5.34375 -45.75 C 5.25 -46.382812 5.164062 -47 5.09375 -47.59375 L 4.5 -51.59375 C 4.4375 -52.332031 4.367188 -53.097656 4.296875 -53.890625 C 4.234375 -54.691406 4.203125 -55.460938 4.203125 -56.203125 C 4.203125 -56.671875 4.203125 -57.132812 4.203125 -57.59375 C 4.203125 -58.0625 4.164062 -58.53125 4.09375 -59 C 3.96875 -59.863281 4.003906 -60.695312 4.203125 -61.5 C 4.398438 -62.4375 4.800781 -63.238281 5.40625 -63.90625 C 5.601562 -64.164062 5.800781 -64.394531 6 -64.59375 C 6.195312 -64.800781 6.394531 -65.003906 6.59375 -65.203125 C 7 -65.535156 7.453125 -65.765625 7.953125 -65.890625 C 8.453125 -66.023438 8.9375 -66.128906 9.40625 -66.203125 C 9.738281 -66.203125 10.070312 -66.179688 10.40625 -66.140625 C 10.738281 -66.109375 11.035156 -66.0625 11.296875 -66 C 11.703125 -65.863281 12.117188 -65.78125 12.546875 -65.75 C 12.984375 -65.71875 13.4375 -65.703125 13.90625 -65.703125 C 14.769531 -65.703125 15.617188 -65.703125 16.453125 -65.703125 C 17.285156 -65.703125 18.132812 -65.664062 19 -65.59375 C 20.53125 -65.59375 22.097656 -65.492188 23.703125 -65.296875 C 24.628906 -65.160156 25.507812 -64.976562 26.34375 -64.75 C 27.175781 -64.519531 28.03125 -64.238281 28.90625 -63.90625 C 30.363281 -63.363281 31.726562 -62.757812 33 -62.09375 C 33.601562 -61.832031 34.171875 -61.515625 34.703125 -61.140625 C 35.234375 -60.773438 35.734375 -60.363281 36.203125 -59.90625 C 36.398438 -59.695312 36.597656 -59.492188 36.796875 -59.296875 C 36.992188 -59.097656 37.160156 -58.863281 37.296875 -58.59375 C 37.492188 -58.394531 37.691406 -58.195312 37.890625 -58 C 38.097656 -57.800781 38.234375 -57.535156 38.296875 -57.203125 C 38.429688 -56.929688 38.5 -56.796875 38.5 -56.796875 C 38.96875 -56.128906 39.316406 -55.394531 39.546875 -54.59375 C 39.785156 -53.800781 39.96875 -53.003906 40.09375 -52.203125 C 40.226562 -51.535156 40.242188 -50.882812 40.140625 -50.25 C 40.046875 -49.613281 39.96875 -48.960938 39.90625 -48.296875 C 39.90625 -47.828125 39.867188 -47.394531 39.796875 -47 C 39.734375 -46.601562 39.632812 -46.203125 39.5 -45.796875 C 39.4375 -45.128906 39.253906 -44.492188 38.953125 -43.890625 C 38.648438 -43.296875 38.332031 -42.734375 38 -42.203125 C 38 -42.128906 37.960938 -42.078125 37.890625 -42.046875 C 37.828125 -42.015625 37.765625 -41.929688 37.703125 -41.796875 C 37.234375 -41.265625 36.710938 -40.734375 36.140625 -40.203125 C 35.578125 -39.671875 34.929688 -39.203125 34.203125 -38.796875 C 33.929688 -38.660156 33.675781 -38.492188 33.4375 -38.296875 C 33.207031 -38.097656 32.925781 -37.929688 32.59375 -37.796875 C 32.46875 -37.660156 32.46875 -37.53125 32.59375 -37.40625 C 32.863281 -37.132812 33.066406 -36.96875 33.203125 -36.90625 C 33.671875 -36.5 34.15625 -36.09375 34.65625 -35.6875 C 35.15625 -35.289062 35.632812 -34.894531 36.09375 -34.5 C 36.632812 -34.164062 37.101562 -33.78125 37.5 -33.34375 C 37.894531 -32.914062 38.328125 -32.5 38.796875 -32.09375 C 39.265625 -31.632812 39.734375 -31.171875 40.203125 -30.703125 C 40.671875 -30.234375 41.132812 -29.765625 41.59375 -29.296875 C 41.726562 -29.234375 41.863281 -29.132812 42 -29 C 42.132812 -28.863281 42.269531 -28.726562 42.40625 -28.59375 C 42.738281 -28.332031 43.035156 -28.066406 43.296875 -27.796875 C 43.566406 -27.535156 43.832031 -27.238281 44.09375 -26.90625 C 44.226562 -26.632812 44.394531 -26.414062 44.59375 -26.25 C 44.800781 -26.082031 45.003906 -25.898438 45.203125 -25.703125 C 45.460938 -25.503906 45.691406 -25.300781 45.890625 -25.09375 C 46.097656 -24.894531 46.332031 -24.664062 46.59375 -24.40625 C 46.925781 -24 47.289062 -23.578125 47.6875 -23.140625 C 48.09375 -22.710938 48.5 -22.300781 48.90625 -21.90625 L 49.5 -21.203125 C 49.632812 -21.066406 49.765625 -20.929688 49.890625 -20.796875 C 50.023438 -20.660156 50.128906 -20.53125 50.203125 -20.40625 C 50.796875 -19.738281 51.410156 -19.070312 52.046875 -18.40625 C 52.679688 -17.738281 53.332031 -17.035156 54 -16.296875 L 54.59375 -15.703125 C 55 -15.429688 55.382812 -15.078125 55.75 -14.640625 C 56.113281 -14.210938 56.460938 -13.832031 56.796875 -13.5 C 57.066406 -13.300781 57.269531 -13 57.40625 -12.59375 C 57.46875 -12.394531 57.53125 -12.210938 57.59375 -12.046875 C 57.664062 -11.878906 57.734375 -11.695312 57.796875 -11.5 C 57.992188 -10.96875 58.0625 -10.46875 58 -10 C 57.9375 -9.863281 57.90625 -9.628906 57.90625 -9.296875 C 57.90625 -8.765625 57.785156 -8.265625 57.546875 -7.796875 C 57.316406 -7.328125 57.035156 -6.894531 56.703125 -6.5 L 55.796875 -5.703125 C 54.992188 -4.898438 54.492188 -3.863281 54.296875 -2.59375 C 54.234375 -1.925781 54.179688 -1.257812 54.140625 -0.59375 C 54.109375 0.0703125 54.09375 0.769531 54.09375 1.5 C 54.09375 2.226562 54.09375 2.957031 54.09375 3.6875 C 54.09375 4.425781 54.128906 5.164062 54.203125 5.90625 L 54.203125 7.203125 C 54.265625 7.398438 54.296875 7.765625 54.296875 8.296875 L 54.296875 22 C 54.296875 22.46875 54.28125 22.953125 54.25 23.453125 C 54.21875 23.953125 54.203125 24.46875 54.203125 25 C 54.128906 25.269531 54.09375 25.535156 54.09375 25.796875 C 54.09375 26.066406 54.09375 26.332031 54.09375 26.59375 L 54.09375 28.59375 C 54.09375 28.925781 54.128906 29.195312 54.203125 29.40625 C 54.335938 30.46875 54.382812 31.53125 54.34375 32.59375 C 54.3125 33.664062 54.332031 34.769531 54.40625 35.90625 C 54.40625 36.5 54.132812 37.0625 53.59375 37.59375 C 53.0625 38.132812 52.53125 38.171875 52 37.703125 Z M 17.09375 -42.09375 C 17.164062 -42.164062 17.234375 -42.203125 17.296875 -42.203125 C 17.367188 -42.203125 17.4375 -42.234375 17.5 -42.296875 C 18.5625 -43.035156 19.628906 -43.367188 20.703125 -43.296875 C 21.097656 -43.296875 21.394531 -43.265625 21.59375 -43.203125 C 22.132812 -43.066406 22.601562 -43.164062 23 -43.5 C 23.601562 -43.832031 24.203125 -44.113281 24.796875 -44.34375 C 25.398438 -44.582031 25.96875 -44.867188 26.5 -45.203125 C 26.5625 -45.203125 26.59375 -45.21875 26.59375 -45.25 C 26.59375 -45.28125 26.628906 -45.296875 26.703125 -45.296875 C 27.566406 -45.566406 28.363281 -46.035156 29.09375 -46.703125 C 29.757812 -47.171875 30.144531 -47.488281 30.25 -47.65625 C 30.351562 -47.820312 30.46875 -48.335938 30.59375 -49.203125 L 30.59375 -49.59375 C 30.59375 -50 30.5625 -50.367188 30.5 -50.703125 C 30.4375 -51.035156 30.40625 -51.332031 30.40625 -51.59375 C 30.195312 -52.332031 29.796875 -52.898438 29.203125 -53.296875 C 28.597656 -53.703125 27.960938 -54.003906 27.296875 -54.203125 C 26.566406 -54.535156 25.800781 -54.785156 25 -54.953125 C 24.195312 -55.117188 23.429688 -55.269531 22.703125 -55.40625 C 22.628906 -55.40625 22.578125 -55.421875 22.546875 -55.453125 C 22.515625 -55.484375 22.46875 -55.5 22.40625 -55.5 C 21.738281 -55.632812 21.132812 -55.5 20.59375 -55.09375 C 20.59375 -55.09375 20.578125 -55.09375 20.546875 -55.09375 C 20.515625 -55.09375 20.46875 -55.0625 20.40625 -55 C 19.664062 -54.601562 19 -54.503906 18.40625 -54.703125 L 17.90625 -54.703125 C 16.90625 -54.703125 16.203125 -54.269531 15.796875 -53.40625 C 15.660156 -53 15.59375 -52.695312 15.59375 -52.5 C 15.59375 -52.164062 15.59375 -51.796875 15.59375 -51.390625 C 15.59375 -50.992188 15.628906 -50.628906 15.703125 -50.296875 C 15.835938 -49.898438 15.90625 -49.601562 15.90625 -49.40625 C 15.90625 -48.9375 15.9375 -48.5 16 -48.09375 C 16.0625 -47.695312 16.128906 -47.300781 16.203125 -46.90625 C 16.265625 -46.832031 16.296875 -46.695312 16.296875 -46.5 C 16.234375 -46.226562 16.21875 -45.992188 16.25 -45.796875 C 16.28125 -45.597656 16.296875 -45.363281 16.296875 -45.09375 C 16.367188 -44.832031 16.421875 -44.597656 16.453125 -44.390625 C 16.484375 -44.191406 16.46875 -43.992188 16.40625 -43.796875 C 16.40625 -43.265625 16.503906 -42.734375 16.703125 -42.203125 C 16.703125 -42.128906 16.75 -42.078125 16.84375 -42.046875 C 16.945312 -42.015625 17.03125 -42.03125 17.09375 -42.09375 Z M 17.09375 -42.09375 "/></g></g></g><g fill="#e4e2dd" fill-opacity="1"><g transform="translate(166.834369, 219.374986)"><g><path d="M 36.203125 -0.09375 C 35.335938 0.101562 34.4375 0.0351562 33.5 -0.296875 C 33.226562 -0.367188 33.007812 -0.46875 32.84375 -0.59375 C 32.675781 -0.726562 32.492188 -0.863281 32.296875 -1 C 31.828125 -1.332031 31.460938 -1.832031 31.203125 -2.5 L 30.796875 -3.796875 C 30.796875 -3.929688 30.78125 -4.046875 30.75 -4.140625 C 30.71875 -4.242188 30.703125 -4.332031 30.703125 -4.40625 C 30.703125 -5.332031 30.632812 -6.242188 30.5 -7.140625 C 30.363281 -8.046875 30.226562 -8.929688 30.09375 -9.796875 C 29.96875 -10.460938 29.851562 -11.128906 29.75 -11.796875 C 29.644531 -12.460938 29.53125 -13.128906 29.40625 -13.796875 C 29.40625 -13.929688 29.382812 -14.03125 29.34375 -14.09375 C 29.3125 -14.164062 29.296875 -14.234375 29.296875 -14.296875 C 29.160156 -15.097656 29.023438 -15.898438 28.890625 -16.703125 C 28.765625 -17.503906 28.632812 -18.269531 28.5 -19 C 28.4375 -19.394531 28.382812 -19.789062 28.34375 -20.1875 C 28.3125 -20.59375 28.226562 -21 28.09375 -21.40625 L 27.5 -25.796875 C 27.4375 -26.398438 27.351562 -27.015625 27.25 -27.640625 C 27.144531 -28.273438 27.03125 -28.925781 26.90625 -29.59375 C 26.832031 -30.257812 26.726562 -30.910156 26.59375 -31.546875 C 26.46875 -32.179688 26.335938 -32.800781 26.203125 -33.40625 L 24.703125 -40 C 24.566406 -40.726562 24.429688 -41.457031 24.296875 -42.1875 C 24.160156 -42.925781 23.992188 -43.628906 23.796875 -44.296875 C 23.597656 -44.898438 23.429688 -45.515625 23.296875 -46.140625 C 23.160156 -46.773438 22.960938 -47.394531 22.703125 -48 L 22.59375 -48.40625 C 22.394531 -49.269531 22.144531 -50.097656 21.84375 -50.890625 C 21.550781 -51.691406 21.238281 -52.492188 20.90625 -53.296875 C 20.90625 -53.367188 20.882812 -53.421875 20.84375 -53.453125 C 20.8125 -53.484375 20.796875 -53.5 20.796875 -53.5 C 20.660156 -53.894531 20.425781 -54.03125 20.09375 -53.90625 C 20.03125 -53.832031 19.929688 -53.796875 19.796875 -53.796875 C 19.535156 -53.734375 19.285156 -53.632812 19.046875 -53.5 C 18.816406 -53.363281 18.566406 -53.226562 18.296875 -53.09375 C 17.628906 -52.894531 17.0625 -52.597656 16.59375 -52.203125 L 13.90625 -50.296875 C 13.5 -50.097656 13.144531 -49.832031 12.84375 -49.5 C 12.550781 -49.164062 12.269531 -48.832031 12 -48.5 C 11.800781 -48.226562 11.703125 -47.925781 11.703125 -47.59375 L 11.40625 -45.796875 C 11.332031 -45.128906 11.257812 -44.425781 11.1875 -43.6875 C 11.125 -42.957031 11.0625 -42.226562 11 -41.5 C 10.9375 -40.832031 10.851562 -40.210938 10.75 -39.640625 C 10.644531 -39.078125 10.59375 -38.460938 10.59375 -37.796875 C 10.59375 -37.265625 10.492188 -36.695312 10.296875 -36.09375 C 10.097656 -35.363281 9.597656 -34.898438 8.796875 -34.703125 C 8.203125 -34.628906 7.703125 -34.828125 7.296875 -35.296875 C 6.960938 -35.628906 6.726562 -36.128906 6.59375 -36.796875 C 6.53125 -37.265625 6.460938 -37.695312 6.390625 -38.09375 C 6.328125 -38.5 6.296875 -38.9375 6.296875 -39.40625 L 6.296875 -42.40625 C 6.296875 -43 6.28125 -43.5625 6.25 -44.09375 C 6.21875 -44.632812 6.234375 -45.132812 6.296875 -45.59375 C 6.296875 -46.726562 6.03125 -47.832031 5.5 -48.90625 L 4 -52 C 3.726562 -52.53125 3.492188 -53.242188 3.296875 -54.140625 C 3.097656 -55.046875 3 -55.800781 3 -56.40625 C 3.132812 -57.9375 3.703125 -59.203125 4.703125 -60.203125 C 5.566406 -61.066406 6.566406 -61.632812 7.703125 -61.90625 C 8.097656 -62.03125 8.628906 -62.160156 9.296875 -62.296875 L 14.59375 -63.203125 C 15.132812 -63.265625 15.65625 -63.34375 16.15625 -63.4375 C 16.65625 -63.539062 17.132812 -63.628906 17.59375 -63.703125 C 18.59375 -63.835938 19.609375 -63.96875 20.640625 -64.09375 C 21.679688 -64.226562 22.734375 -64.332031 23.796875 -64.40625 C 24.398438 -64.46875 25 -64.53125 25.59375 -64.59375 C 26.195312 -64.664062 26.800781 -64.734375 27.40625 -64.796875 L 27.796875 -64.796875 C 28.398438 -64.867188 28.984375 -64.921875 29.546875 -64.953125 C 30.117188 -64.984375 30.703125 -65.03125 31.296875 -65.09375 C 31.628906 -65.164062 31.960938 -65.203125 32.296875 -65.203125 C 32.628906 -65.203125 32.929688 -65.234375 33.203125 -65.296875 C 33.265625 -65.367188 33.394531 -65.40625 33.59375 -65.40625 L 37.296875 -65.703125 C 38.035156 -65.765625 38.753906 -65.828125 39.453125 -65.890625 C 40.148438 -65.960938 40.863281 -66.03125 41.59375 -66.09375 C 42.195312 -66.164062 42.796875 -66.25 43.390625 -66.34375 C 43.992188 -66.445312 44.597656 -66.632812 45.203125 -66.90625 C 45.796875 -67.164062 46.410156 -67.242188 47.046875 -67.140625 C 47.679688 -67.046875 48.265625 -66.863281 48.796875 -66.59375 C 48.992188 -66.53125 49.175781 -66.414062 49.34375 -66.25 C 49.507812 -66.082031 49.660156 -65.929688 49.796875 -65.796875 C 50.128906 -65.460938 50.394531 -65.078125 50.59375 -64.640625 C 50.800781 -64.210938 51.003906 -63.800781 51.203125 -63.40625 C 51.398438 -63 51.398438 -62.597656 51.203125 -62.203125 C 51.066406 -61.929688 50.984375 -61.644531 50.953125 -61.34375 C 50.921875 -61.050781 50.867188 -60.738281 50.796875 -60.40625 C 50.796875 -60.070312 50.695312 -59.800781 50.5 -59.59375 C 50.363281 -59.53125 50.226562 -59.429688 50.09375 -59.296875 C 49.96875 -59.160156 49.835938 -59.03125 49.703125 -58.90625 C 49.503906 -58.832031 49.300781 -58.628906 49.09375 -58.296875 C 48.695312 -57.765625 48.132812 -57.5 47.40625 -57.5 C 47.132812 -57.5 46.878906 -57.460938 46.640625 -57.390625 C 46.410156 -57.328125 46.164062 -57.265625 45.90625 -57.203125 C 45.300781 -57.066406 44.898438 -56.863281 44.703125 -56.59375 C 44.367188 -56.257812 44 -56.09375 43.59375 -56.09375 C 43.132812 -55.96875 42.769531 -56.101562 42.5 -56.5 C 42.4375 -56.695312 42.269531 -56.796875 42 -56.796875 C 41.726562 -56.734375 41.441406 -56.703125 41.140625 -56.703125 C 40.847656 -56.703125 40.566406 -56.703125 40.296875 -56.703125 C 40.035156 -56.628906 39.753906 -56.59375 39.453125 -56.59375 C 39.148438 -56.59375 38.832031 -56.5625 38.5 -56.5 C 38.226562 -56.5 37.992188 -56.484375 37.796875 -56.453125 C 37.597656 -56.421875 37.363281 -56.40625 37.09375 -56.40625 C 36.425781 -56.332031 35.742188 -56.257812 35.046875 -56.1875 C 34.347656 -56.125 33.632812 -56.0625 32.90625 -56 C 32.5 -56 32.195312 -55.96875 32 -55.90625 C 31.726562 -55.769531 31.59375 -55.566406 31.59375 -55.296875 C 31.53125 -55.035156 31.53125 -54.703125 31.59375 -54.296875 L 32.203125 -51.203125 C 32.335938 -50.597656 32.46875 -49.976562 32.59375 -49.34375 C 32.726562 -48.71875 32.863281 -48.070312 33 -47.40625 L 33.296875 -45.203125 C 33.296875 -44.929688 33.3125 -44.675781 33.34375 -44.4375 C 33.382812 -44.207031 33.4375 -43.960938 33.5 -43.703125 C 33.632812 -42.898438 33.785156 -42.097656 33.953125 -41.296875 C 34.117188 -40.492188 34.234375 -39.695312 34.296875 -38.90625 L 34.40625 -38.5 C 34.664062 -37.632812 34.863281 -36.765625 35 -35.890625 C 35.132812 -35.023438 35.269531 -34.128906 35.40625 -33.203125 C 35.53125 -32.597656 35.660156 -31.976562 35.796875 -31.34375 C 35.929688 -30.71875 36.03125 -30.101562 36.09375 -29.5 C 36.164062 -29.03125 36.234375 -28.578125 36.296875 -28.140625 C 36.367188 -27.710938 36.4375 -27.265625 36.5 -26.796875 L 36.5 -26.296875 C 36.5625 -25.765625 36.644531 -25.25 36.75 -24.75 C 36.851562 -24.25 36.9375 -23.734375 37 -23.203125 L 37.296875 -20.203125 C 37.367188 -19.734375 37.4375 -19.265625 37.5 -18.796875 C 37.5625 -18.328125 37.628906 -17.828125 37.703125 -17.296875 C 37.703125 -17.160156 37.71875 -17.007812 37.75 -16.84375 C 37.78125 -16.675781 37.796875 -16.53125 37.796875 -16.40625 C 37.796875 -16.070312 37.828125 -15.71875 37.890625 -15.34375 C 37.960938 -14.976562 38.03125 -14.597656 38.09375 -14.203125 C 38.226562 -13.460938 38.363281 -12.707031 38.5 -11.9375 C 38.632812 -11.175781 38.769531 -10.394531 38.90625 -9.59375 C 38.96875 -9.132812 39.066406 -8.6875 39.203125 -8.25 C 39.335938 -7.8125 39.4375 -7.363281 39.5 -6.90625 C 39.5625 -6.570312 39.757812 -6.238281 40.09375 -5.90625 C 40.363281 -5.695312 40.429688 -5.460938 40.296875 -5.203125 C 40.097656 -4.929688 39.984375 -4.628906 39.953125 -4.296875 C 39.921875 -3.960938 39.867188 -3.628906 39.796875 -3.296875 C 39.796875 -3.035156 39.765625 -2.835938 39.703125 -2.703125 C 39.703125 -2.367188 39.566406 -2.132812 39.296875 -2 C 39.035156 -1.863281 38.769531 -1.597656 38.5 -1.203125 C 38.164062 -0.867188 37.898438 -0.632812 37.703125 -0.5 C 37.503906 -0.300781 37.238281 -0.203125 36.90625 -0.203125 C 36.769531 -0.265625 36.535156 -0.226562 36.203125 -0.09375 Z M 36.203125 -0.09375 "/></g></g></g><g fill="#e4e2dd" fill-opacity="1"><g transform="translate(210.332306, 219.374986)"><g><path d="M 19.796875 13 C 19.265625 12.863281 18.898438 12.5625 18.703125 12.09375 C 18.566406 11.5625 18.429688 11.0625 18.296875 10.59375 C 18.160156 10.132812 18.09375 9.671875 18.09375 9.203125 L 18.09375 8.59375 C 18.164062 7.925781 18.132812 7.273438 18 6.640625 C 17.863281 6.015625 17.765625 5.367188 17.703125 4.703125 C 17.703125 4.429688 17.664062 4.226562 17.59375 4.09375 L 16.5 2 C 16.363281 1.863281 16.164062 1.597656 15.90625 1.203125 C 15.695312 0.734375 15.476562 0.316406 15.25 -0.046875 C 15.019531 -0.410156 14.769531 -0.796875 14.5 -1.203125 C 14.363281 -1.460938 14.195312 -1.691406 14 -1.890625 C 13.800781 -2.097656 13.601562 -2.332031 13.40625 -2.59375 C 13.269531 -2.800781 13.132812 -3.035156 13 -3.296875 C 12.863281 -3.566406 12.664062 -3.800781 12.40625 -4 L 12.09375 -4.5 C 11.832031 -4.96875 11.582031 -5.398438 11.34375 -5.796875 C 11.113281 -6.203125 10.898438 -6.601562 10.703125 -7 L 10.40625 -7.59375 C 10.132812 -8.46875 9.847656 -9.300781 9.546875 -10.09375 C 9.242188 -10.894531 8.925781 -11.726562 8.59375 -12.59375 C 8.394531 -13.132812 8.210938 -13.632812 8.046875 -14.09375 C 7.878906 -14.5625 7.664062 -15.03125 7.40625 -15.5 C 6.9375 -16.5 6.632812 -17.566406 6.5 -18.703125 C 6.4375 -19.503906 6.503906 -20.335938 6.703125 -21.203125 C 6.898438 -21.734375 7.195312 -22.195312 7.59375 -22.59375 C 8.863281 -23.664062 10.265625 -24.066406 11.796875 -23.796875 L 12.90625 -23.59375 C 13.695312 -23.257812 14.257812 -22.796875 14.59375 -22.203125 C 14.863281 -21.734375 15.097656 -21.25 15.296875 -20.75 C 15.492188 -20.25 15.628906 -19.695312 15.703125 -19.09375 C 15.835938 -18.695312 15.96875 -18.28125 16.09375 -17.84375 C 16.226562 -17.414062 16.394531 -16.96875 16.59375 -16.5 C 16.925781 -15.769531 17.296875 -15.035156 17.703125 -14.296875 C 18.035156 -13.703125 18.4375 -13.203125 18.90625 -12.796875 C 19.238281 -12.535156 19.601562 -12.238281 20 -11.90625 C 20.394531 -11.570312 20.757812 -11.238281 21.09375 -10.90625 L 23.203125 -8.796875 C 23.335938 -8.734375 23.453125 -8.632812 23.546875 -8.5 C 23.648438 -8.363281 23.734375 -8.226562 23.796875 -8.09375 C 23.992188 -7.96875 24.226562 -7.9375 24.5 -8 C 25.164062 -8.195312 25.832031 -8.5625 26.5 -9.09375 C 27.5625 -9.96875 28.425781 -10.867188 29.09375 -11.796875 C 29.757812 -12.734375 30.195312 -13.832031 30.40625 -15.09375 C 30.53125 -16.226562 30.195312 -17.226562 29.40625 -18.09375 C 29.269531 -18.363281 29.066406 -18.53125 28.796875 -18.59375 C 28.328125 -18.863281 27.875 -19.113281 27.4375 -19.34375 C 27.007812 -19.582031 26.53125 -19.769531 26 -19.90625 C 25.46875 -20.101562 25 -20.398438 24.59375 -20.796875 C 24.332031 -21.128906 23.9375 -21.332031 23.40625 -21.40625 C 22.9375 -21.53125 22.5 -21.691406 22.09375 -21.890625 C 21.695312 -22.097656 21.332031 -22.332031 21 -22.59375 C 20.601562 -22.925781 20.203125 -23.207031 19.796875 -23.4375 C 19.398438 -23.675781 19 -23.929688 18.59375 -24.203125 C 18.195312 -24.398438 17.816406 -24.628906 17.453125 -24.890625 C 17.085938 -25.160156 16.738281 -25.429688 16.40625 -25.703125 C 15.9375 -26.035156 15.5 -26.382812 15.09375 -26.75 C 14.695312 -27.113281 14.300781 -27.460938 13.90625 -27.796875 C 13.632812 -27.929688 13.46875 -28.066406 13.40625 -28.203125 C 13.070312 -28.597656 12.71875 -28.976562 12.34375 -29.34375 C 11.976562 -29.71875 11.628906 -30.132812 11.296875 -30.59375 C 11.097656 -30.863281 10.898438 -31.113281 10.703125 -31.34375 C 10.503906 -31.582031 10.269531 -31.832031 10 -32.09375 C 9.726562 -32.363281 9.476562 -32.648438 9.25 -32.953125 C 9.019531 -33.253906 8.835938 -33.570312 8.703125 -33.90625 L 7.796875 -35.40625 C 7.460938 -36.070312 7.160156 -36.738281 6.890625 -37.40625 C 6.628906 -38.070312 6.332031 -38.738281 6 -39.40625 C 5.726562 -40.132812 5.476562 -40.863281 5.25 -41.59375 C 5.019531 -42.332031 4.835938 -43.066406 4.703125 -43.796875 C 4.628906 -44.328125 4.539062 -44.828125 4.4375 -45.296875 C 4.34375 -45.765625 4.265625 -46.234375 4.203125 -46.703125 C 4.128906 -47.429688 4.09375 -48.144531 4.09375 -48.84375 C 4.09375 -49.550781 4.0625 -50.269531 4 -51 C 4 -51.863281 4.066406 -52.726562 4.203125 -53.59375 C 4.335938 -54.46875 4.503906 -55.335938 4.703125 -56.203125 C 4.835938 -56.734375 4.96875 -57.265625 5.09375 -57.796875 C 5.226562 -58.328125 5.363281 -58.828125 5.5 -59.296875 C 5.632812 -59.628906 5.765625 -59.945312 5.890625 -60.25 C 6.023438 -60.550781 6.128906 -60.832031 6.203125 -61.09375 C 6.734375 -62.5 7.5 -63.898438 8.5 -65.296875 C 8.832031 -65.765625 9.179688 -66.210938 9.546875 -66.640625 C 9.910156 -67.078125 10.296875 -67.5 10.703125 -67.90625 C 11.035156 -68.238281 11.367188 -68.601562 11.703125 -69 C 12.035156 -69.394531 12.332031 -69.796875 12.59375 -70.203125 C 13.46875 -71.335938 14.46875 -72.171875 15.59375 -72.703125 C 16.726562 -73.296875 18.03125 -73.53125 19.5 -73.40625 C 21.300781 -73.132812 23 -72.429688 24.59375 -71.296875 C 25.132812 -70.898438 25.6875 -70.484375 26.25 -70.046875 C 26.8125 -69.617188 27.363281 -69.171875 27.90625 -68.703125 C 29.238281 -67.628906 30.335938 -66.425781 31.203125 -65.09375 C 31.597656 -64.5 31.992188 -63.898438 32.390625 -63.296875 C 32.796875 -62.703125 33.164062 -62.101562 33.5 -61.5 C 33.695312 -61.226562 33.863281 -60.957031 34 -60.6875 C 34.132812 -60.425781 34.234375 -60.128906 34.296875 -59.796875 C 34.429688 -59.203125 34.484375 -58.617188 34.453125 -58.046875 C 34.421875 -57.484375 34.335938 -56.898438 34.203125 -56.296875 L 33.90625 -55.5 C 33.695312 -55.164062 33.492188 -54.796875 33.296875 -54.390625 C 33.097656 -53.992188 32.898438 -53.628906 32.703125 -53.296875 C 32.566406 -53.035156 32.414062 -52.785156 32.25 -52.546875 C 32.082031 -52.316406 31.929688 -52.101562 31.796875 -51.90625 C 31.265625 -51.03125 31 -50.160156 31 -49.296875 L 31 -39.59375 C 31 -38.257812 30.800781 -36.992188 30.40625 -35.796875 C 30.40625 -35.734375 30.382812 -35.679688 30.34375 -35.640625 C 30.3125 -35.609375 30.296875 -35.53125 30.296875 -35.40625 C 30.296875 -35.070312 30.394531 -34.800781 30.59375 -34.59375 L 31.5 -34 C 32.226562 -33.53125 32.910156 -33.007812 33.546875 -32.4375 C 34.179688 -31.875 34.832031 -31.328125 35.5 -30.796875 C 35.894531 -30.460938 36.257812 -30.078125 36.59375 -29.640625 C 36.925781 -29.210938 37.226562 -28.800781 37.5 -28.40625 C 37.769531 -28.070312 38.003906 -27.71875 38.203125 -27.34375 C 38.398438 -26.976562 38.597656 -26.628906 38.796875 -26.296875 C 39.128906 -25.828125 39.378906 -25.289062 39.546875 -24.6875 C 39.710938 -24.09375 39.863281 -23.5 40 -22.90625 L 40 -22.5 C 39.9375 -22.03125 39.9375 -21.53125 40 -21 C 40.0625 -20.46875 40.128906 -19.9375 40.203125 -19.40625 C 40.203125 -19.269531 40.21875 -19.117188 40.25 -18.953125 C 40.28125 -18.785156 40.265625 -18.601562 40.203125 -18.40625 L 39.90625 -16.296875 C 39.769531 -15.960938 39.832031 -15.765625 40.09375 -15.703125 C 40.300781 -15.703125 40.40625 -15.632812 40.40625 -15.5 C 40.601562 -15.4375 40.632812 -15.269531 40.5 -15 C 40.363281 -14.726562 40.195312 -14.660156 40 -14.796875 C 40 -14.867188 39.96875 -14.90625 39.90625 -14.90625 C 39.695312 -14.96875 39.5625 -14.929688 39.5 -14.796875 C 39.4375 -14.597656 39.382812 -14.398438 39.34375 -14.203125 C 39.3125 -14.003906 39.296875 -13.769531 39.296875 -13.5 C 39.035156 -13.101562 38.96875 -12.769531 39.09375 -12.5 C 39.09375 -12.300781 39.0625 -12.164062 39 -12.09375 C 38.800781 -11.894531 38.734375 -11.628906 38.796875 -11.296875 C 38.796875 -11.160156 38.695312 -11.03125 38.5 -10.90625 C 38.101562 -10.695312 37.800781 -10.328125 37.59375 -9.796875 C 37.257812 -8.929688 36.875 -8.113281 36.4375 -7.34375 C 36.007812 -6.582031 35.53125 -5.832031 35 -5.09375 C 34.46875 -4.363281 33.914062 -3.648438 33.34375 -2.953125 C 32.78125 -2.253906 32.132812 -1.601562 31.40625 -1 C 30.800781 -0.53125 30.164062 -0.0820312 29.5 0.34375 C 28.832031 0.78125 28.132812 1.164062 27.40625 1.5 C 27.132812 1.5625 26.863281 1.695312 26.59375 1.90625 L 25.40625 2.5 C 24.863281 2.5625 24.328125 2.828125 23.796875 3.296875 L 23.203125 3.703125 C 23.003906 3.898438 22.835938 4.234375 22.703125 4.703125 L 22.703125 7.40625 C 22.703125 7.664062 22.703125 7.925781 22.703125 8.1875 C 22.703125 8.457031 22.664062 8.726562 22.59375 9 C 22.53125 9.132812 22.5 9.300781 22.5 9.5 C 22.5 9.695312 22.46875 9.863281 22.40625 10 C 22.332031 10.269531 22.257812 10.550781 22.1875 10.84375 C 22.125 11.144531 22.03125 11.460938 21.90625 11.796875 C 21.570312 12.734375 20.867188 13.132812 19.796875 13 Z M 25.90625 -37.203125 C 26.164062 -37.203125 26.332031 -37.300781 26.40625 -37.5 C 26.46875 -37.832031 26.484375 -38.164062 26.453125 -38.5 C 26.421875 -38.832031 26.367188 -39.132812 26.296875 -39.40625 C 26.234375 -39.738281 26.203125 -40.085938 26.203125 -40.453125 C 26.203125 -40.816406 26.164062 -41.164062 26.09375 -41.5 C 26.09375 -41.894531 26.0625 -42.289062 26 -42.6875 C 25.9375 -43.09375 25.9375 -43.5 26 -43.90625 C 26.0625 -43.96875 26.078125 -44.015625 26.046875 -44.046875 C 26.015625 -44.078125 26 -44.09375 26 -44.09375 C 25.9375 -44.5625 25.90625 -44.992188 25.90625 -45.390625 C 25.90625 -45.796875 25.90625 -46.195312 25.90625 -46.59375 C 25.90625 -47.925781 25.632812 -49.226562 25.09375 -50.5 C 24.632812 -51.5625 24.15625 -52.59375 23.65625 -53.59375 C 23.15625 -54.59375 22.632812 -55.59375 22.09375 -56.59375 C 21.894531 -57 21.644531 -57.382812 21.34375 -57.75 C 21.050781 -58.113281 20.738281 -58.460938 20.40625 -58.796875 C 20.132812 -59.203125 19.765625 -59.269531 19.296875 -59 C 18.898438 -58.9375 18.46875 -58.671875 18 -58.203125 C 17.601562 -57.734375 17.238281 -57.234375 16.90625 -56.703125 C 16.570312 -56.171875 16.269531 -55.601562 16 -55 C 15.9375 -54.800781 15.867188 -54.597656 15.796875 -54.390625 C 15.734375 -54.191406 15.664062 -54.03125 15.59375 -53.90625 C 15.53125 -53.4375 15.484375 -52.953125 15.453125 -52.453125 C 15.421875 -51.953125 15.40625 -51.4375 15.40625 -50.90625 L 15.40625 -49.59375 C 15.40625 -48.664062 15.671875 -47.664062 16.203125 -46.59375 C 16.671875 -45.59375 17.335938 -44.59375 18.203125 -43.59375 C 18.398438 -43.332031 18.597656 -43.082031 18.796875 -42.84375 C 18.992188 -42.613281 19.195312 -42.332031 19.40625 -42 C 20 -41.195312 20.675781 -40.492188 21.4375 -39.890625 C 22.207031 -39.296875 23.03125 -38.734375 23.90625 -38.203125 L 25.40625 -37.40625 C 25.53125 -37.332031 25.625 -37.296875 25.6875 -37.296875 C 25.757812 -37.296875 25.832031 -37.265625 25.90625 -37.203125 Z M 25.90625 -37.203125 "/></g></g></g><g fill="#e4e2dd" fill-opacity="1"><g transform="translate(244.130609, 219.374986)"><g><path d="M 28.40625 10.5 L 27.703125 10.203125 C 27.367188 10.003906 27.203125 9.738281 27.203125 9.40625 C 27.128906 8.800781 26.957031 8.210938 26.6875 7.640625 C 26.425781 7.078125 26.128906 6.5625 25.796875 6.09375 C 25.265625 5.226562 24.898438 4.296875 24.703125 3.296875 C 24.703125 3.097656 24.679688 2.878906 24.640625 2.640625 C 24.609375 2.410156 24.59375 2.195312 24.59375 2 C 24.664062 0.863281 24.617188 -0.285156 24.453125 -1.453125 C 24.285156 -2.617188 24.132812 -3.769531 24 -4.90625 C 23.9375 -5.363281 23.867188 -5.8125 23.796875 -6.25 C 23.734375 -6.6875 23.664062 -7.132812 23.59375 -7.59375 C 23.53125 -7.800781 23.5 -7.988281 23.5 -8.15625 C 23.5 -8.320312 23.46875 -8.46875 23.40625 -8.59375 C 23.269531 -9.257812 23.164062 -9.910156 23.09375 -10.546875 C 23.03125 -11.179688 22.929688 -11.832031 22.796875 -12.5 C 22.734375 -12.894531 22.664062 -13.289062 22.59375 -13.6875 C 22.53125 -14.09375 22.429688 -14.5 22.296875 -14.90625 C 22.234375 -15.4375 22.132812 -15.96875 22 -16.5 C 21.863281 -17.03125 21.726562 -17.5625 21.59375 -18.09375 C 21.53125 -18.5625 21.429688 -19.007812 21.296875 -19.4375 C 21.160156 -19.875 21.0625 -20.328125 21 -20.796875 C 20.9375 -20.992188 20.882812 -21.191406 20.84375 -21.390625 C 20.8125 -21.597656 20.726562 -21.800781 20.59375 -22 L 20.296875 -22.703125 C 20.160156 -23.296875 19.992188 -23.910156 19.796875 -24.546875 C 19.597656 -25.179688 19.429688 -25.800781 19.296875 -26.40625 C 19.160156 -26.800781 18.992188 -27.195312 18.796875 -27.59375 C 18.597656 -28 18.429688 -28.398438 18.296875 -28.796875 L 17.703125 -30.296875 C 17.566406 -30.765625 17.429688 -31.25 17.296875 -31.75 C 17.160156 -32.25 17.03125 -32.734375 16.90625 -33.203125 L 16.59375 -34.90625 C 16.53125 -35.238281 16.460938 -35.601562 16.390625 -36 C 16.328125 -36.394531 16.265625 -36.757812 16.203125 -37.09375 C 16.203125 -37.425781 16.179688 -37.707031 16.140625 -37.9375 C 16.109375 -38.175781 16.09375 -38.429688 16.09375 -38.703125 C 16.03125 -39.171875 16 -39.617188 16 -40.046875 C 16 -40.484375 15.96875 -40.9375 15.90625 -41.40625 L 15.90625 -42.09375 C 16.03125 -42.5625 16.109375 -42.992188 16.140625 -43.390625 C 16.179688 -43.796875 16.234375 -44.195312 16.296875 -44.59375 C 16.429688 -44.925781 16.429688 -45.226562 16.296875 -45.5 L 15.703125 -46.796875 C 15.628906 -46.929688 15.578125 -47.03125 15.546875 -47.09375 C 15.515625 -47.164062 15.46875 -47.234375 15.40625 -47.296875 C 15.070312 -47.628906 14.769531 -48.007812 14.5 -48.4375 C 14.226562 -48.875 13.925781 -49.296875 13.59375 -49.703125 L 13.40625 -50 C 13.195312 -50.394531 12.976562 -50.8125 12.75 -51.25 C 12.519531 -51.6875 12.238281 -52.035156 11.90625 -52.296875 L 10.40625 -54.40625 C 10.132812 -54.800781 9.863281 -55.195312 9.59375 -55.59375 C 9.332031 -56 9.035156 -56.398438 8.703125 -56.796875 C 8.367188 -57.328125 8.015625 -57.84375 7.640625 -58.34375 C 7.273438 -58.84375 6.863281 -59.328125 6.40625 -59.796875 C 5.40625 -60.992188 4.601562 -62.363281 4 -63.90625 L 3.40625 -65.703125 C 3 -66.835938 2.894531 -68.035156 3.09375 -69.296875 C 3.09375 -69.429688 3.109375 -69.566406 3.140625 -69.703125 C 3.179688 -69.835938 3.203125 -69.96875 3.203125 -70.09375 C 3.398438 -71.632812 4.195312 -72.90625 5.59375 -73.90625 C 5.863281 -74.101562 6.132812 -74.234375 6.40625 -74.296875 C 6.53125 -74.367188 6.675781 -74.40625 6.84375 -74.40625 C 7.007812 -74.40625 7.160156 -74.4375 7.296875 -74.5 C 7.703125 -74.632812 8.070312 -74.703125 8.40625 -74.703125 C 8.53125 -74.703125 8.675781 -74.664062 8.84375 -74.59375 C 9.007812 -74.53125 9.160156 -74.46875 9.296875 -74.40625 C 9.566406 -74.332031 9.847656 -74.296875 10.140625 -74.296875 C 10.441406 -74.296875 10.726562 -74.164062 11 -73.90625 C 11.332031 -73.570312 11.628906 -73.21875 11.890625 -72.84375 C 12.160156 -72.476562 12.394531 -72.0625 12.59375 -71.59375 C 12.726562 -71.257812 12.960938 -71.0625 13.296875 -71 C 13.492188 -70.9375 13.660156 -70.769531 13.796875 -70.5 C 13.796875 -70.4375 13.8125 -70.351562 13.84375 -70.25 C 13.882812 -70.144531 13.90625 -70.0625 13.90625 -70 C 13.96875 -69.394531 14.234375 -68.828125 14.703125 -68.296875 C 14.765625 -68.160156 14.863281 -68.03125 15 -67.90625 C 15.53125 -67.238281 16.0625 -66.570312 16.59375 -65.90625 C 17.132812 -65.238281 17.671875 -64.570312 18.203125 -63.90625 C 18.335938 -63.695312 18.488281 -63.507812 18.65625 -63.34375 C 18.820312 -63.175781 18.9375 -62.992188 19 -62.796875 C 19.800781 -61.535156 20.597656 -60.300781 21.390625 -59.09375 C 22.191406 -57.894531 22.960938 -56.695312 23.703125 -55.5 L 24.5 -54.296875 C 24.5625 -54.234375 24.609375 -54.203125 24.640625 -54.203125 C 24.679688 -54.203125 24.734375 -54.164062 24.796875 -54.09375 C 24.929688 -53.96875 25.097656 -53.96875 25.296875 -54.09375 L 26.296875 -55.09375 C 26.628906 -55.5 26.976562 -55.898438 27.34375 -56.296875 C 27.71875 -56.703125 28.101562 -57.070312 28.5 -57.40625 C 29.4375 -58.332031 30.320312 -59.28125 31.15625 -60.25 C 31.988281 -61.21875 32.835938 -62.164062 33.703125 -63.09375 C 34.035156 -63.5 34.398438 -63.898438 34.796875 -64.296875 C 35.203125 -64.703125 35.570312 -65.070312 35.90625 -65.40625 L 37.296875 -66.90625 C 37.828125 -67.570312 38.359375 -68.21875 38.890625 -68.84375 C 39.429688 -69.476562 39.96875 -70.128906 40.5 -70.796875 C 40.894531 -71.328125 41.273438 -71.828125 41.640625 -72.296875 C 42.015625 -72.765625 42.4375 -73.234375 42.90625 -73.703125 C 43.96875 -74.898438 45.132812 -75.832031 46.40625 -76.5 C 46.863281 -76.769531 47.289062 -77.050781 47.6875 -77.34375 C 48.09375 -77.644531 48.5 -77.929688 48.90625 -78.203125 C 49.4375 -78.597656 50.132812 -78.863281 51 -79 C 52.53125 -79.132812 53.726562 -78.632812 54.59375 -77.5 C 54.863281 -77.226562 55.097656 -76.925781 55.296875 -76.59375 C 55.492188 -76.257812 55.628906 -75.894531 55.703125 -75.5 C 55.960938 -75.03125 56.03125 -74.429688 55.90625 -73.703125 C 55.90625 -73.097656 55.738281 -72.53125 55.40625 -72 C 55 -71.132812 54.429688 -70.269531 53.703125 -69.40625 L 53 -68.40625 C 52.863281 -68.132812 52.695312 -67.878906 52.5 -67.640625 C 52.300781 -67.410156 52.132812 -67.195312 52 -67 C 51.863281 -66.800781 51.664062 -66.566406 51.40625 -66.296875 C 51.132812 -65.828125 50.816406 -65.441406 50.453125 -65.140625 C 50.085938 -64.847656 49.703125 -64.535156 49.296875 -64.203125 C 49.035156 -64.003906 48.785156 -63.800781 48.546875 -63.59375 C 48.316406 -63.394531 48.066406 -63.195312 47.796875 -63 L 46.59375 -62.296875 C 46.132812 -62.097656 45.703125 -61.800781 45.296875 -61.40625 C 45.097656 -61.195312 44.929688 -61.0625 44.796875 -61 C 44.328125 -60.664062 43.875 -60.28125 43.4375 -59.84375 C 43.007812 -59.414062 42.597656 -59 42.203125 -58.59375 C 41.929688 -58.332031 41.675781 -58.097656 41.4375 -57.890625 C 41.207031 -57.691406 40.960938 -57.492188 40.703125 -57.296875 C 40.429688 -57.097656 40.160156 -56.878906 39.890625 -56.640625 C 39.628906 -56.410156 39.363281 -56.195312 39.09375 -56 L 37.796875 -54.796875 C 37.734375 -54.734375 37.664062 -54.679688 37.59375 -54.640625 C 37.53125 -54.609375 37.46875 -54.5625 37.40625 -54.5 C 36.738281 -53.695312 35.9375 -53 35 -52.40625 C 34.800781 -52.195312 34.703125 -52.09375 34.703125 -52.09375 C 34.628906 -51.832031 34.507812 -51.632812 34.34375 -51.5 C 34.175781 -51.363281 33.992188 -51.226562 33.796875 -51.09375 C 33.734375 -51.03125 33.664062 -50.960938 33.59375 -50.890625 C 33.53125 -50.828125 33.429688 -50.765625 33.296875 -50.703125 C 33.035156 -50.234375 32.703125 -49.796875 32.296875 -49.390625 C 31.898438 -48.992188 31.5 -48.628906 31.09375 -48.296875 C 30.894531 -48.160156 30.710938 -47.992188 30.546875 -47.796875 C 30.378906 -47.597656 30.226562 -47.398438 30.09375 -47.203125 C 29.96875 -47.066406 29.9375 -46.832031 30 -46.5 C 30.0625 -46.300781 30.125 -46.082031 30.1875 -45.84375 C 30.257812 -45.613281 30.332031 -45.398438 30.40625 -45.203125 C 30.601562 -44.535156 30.601562 -43.832031 30.40625 -43.09375 C 30.40625 -43.03125 30.382812 -42.945312 30.34375 -42.84375 C 30.3125 -42.75 30.296875 -42.632812 30.296875 -42.5 C 30.234375 -42.363281 30.132812 -42.226562 30 -42.09375 C 29.863281 -41.96875 29.796875 -41.800781 29.796875 -41.59375 C 29.734375 -41.46875 29.703125 -41.269531 29.703125 -41 C 29.703125 -40.664062 29.5 -40.429688 29.09375 -40.296875 C 28.96875 -40.296875 28.835938 -40.195312 28.703125 -40 C 28.628906 -39.9375 28.59375 -39.867188 28.59375 -39.796875 C 28.59375 -39.734375 28.53125 -39.664062 28.40625 -39.59375 C 28 -39.394531 27.863281 -39.097656 28 -38.703125 C 28 -38.429688 28.015625 -38.128906 28.046875 -37.796875 C 28.078125 -37.460938 28.09375 -37.128906 28.09375 -36.796875 C 28.164062 -36.265625 28.234375 -35.734375 28.296875 -35.203125 C 28.367188 -34.671875 28.4375 -34.132812 28.5 -33.59375 L 28.796875 -31.703125 C 28.992188 -30.835938 29.175781 -29.953125 29.34375 -29.046875 C 29.507812 -28.148438 29.660156 -27.234375 29.796875 -26.296875 L 30.703125 -21.59375 C 30.835938 -21 30.96875 -20.398438 31.09375 -19.796875 C 31.226562 -19.203125 31.332031 -18.601562 31.40625 -18 C 31.46875 -17.46875 31.546875 -16.914062 31.640625 -16.34375 C 31.742188 -15.78125 31.832031 -15.234375 31.90625 -14.703125 C 31.96875 -14.296875 32 -13.910156 32 -13.546875 C 32 -13.179688 32 -12.800781 32 -12.40625 C 32.0625 -12.332031 32.09375 -12.226562 32.09375 -12.09375 C 32.09375 -11.96875 32.128906 -11.835938 32.203125 -11.703125 C 32.398438 -11.097656 32.5 -10.5 32.5 -9.90625 C 32.5 -9.632812 32.515625 -9.378906 32.546875 -9.140625 C 32.578125 -8.910156 32.59375 -8.695312 32.59375 -8.5 C 32.664062 -8.300781 32.71875 -8.097656 32.75 -7.890625 C 32.78125 -7.691406 32.832031 -7.492188 32.90625 -7.296875 L 32.90625 -7 C 32.96875 -6.53125 33.03125 -6.09375 33.09375 -5.6875 C 33.164062 -5.289062 33.234375 -4.863281 33.296875 -4.40625 L 33.296875 -4 C 33.234375 -3.46875 33.234375 -2.914062 33.296875 -2.34375 C 33.367188 -1.78125 33.4375 -1.234375 33.5 -0.703125 C 33.5 -0.367188 33.546875 -0.0507812 33.640625 0.25 C 33.742188 0.550781 33.832031 0.867188 33.90625 1.203125 C 33.90625 1.460938 33.867188 1.660156 33.796875 1.796875 C 33.535156 2.066406 33.335938 2.46875 33.203125 3 C 33.203125 3.0625 33.179688 3.125 33.140625 3.1875 C 33.109375 3.257812 33.09375 3.296875 33.09375 3.296875 C 32.894531 3.566406 32.796875 3.867188 32.796875 4.203125 C 32.660156 4.929688 32.394531 5.5 32 5.90625 C 31.332031 6.570312 31 7.46875 31 8.59375 L 30.796875 9.40625 C 30.660156 9.863281 30.328125 10.207031 29.796875 10.4375 C 29.265625 10.675781 28.800781 10.695312 28.40625 10.5 Z M 28.40625 10.5 "/></g></g></g></svg>